<?xml version="1.0" encoding="UTF-8"?><svg id="Layer_2" xmlns="http://www.w3.org/2000/svg" xmlns:xlink="http://www.w3.org/1999/xlink" viewBox="0 0 259.66 263.79"><defs><style>.cls-1{fill:none;}.cls-2{fill:#f9c7c3;}.cls-3{fill:#d5dabd;}.cls-4{fill:#fcfaf9;}.cls-5{fill:#edeceb;}.cls-6{fill:#f5a920;}.cls-7{fill:#b8e1e3;}.cls-8{fill:#1f3b6b;}.cls-9{fill:#fde9c7;}.cls-10{fill:#18b0b4;}.cls-11{fill:#daa754;}.cls-12{fill:#d6d3e8;}.cls-13{clip-path:url(#clippath);}.cls-14{fill:#f4cc86;}.cls-15{fill:#8fa05e;}.cls-16{fill:#e1b160;}.cls-17{fill:#f15c50;}.cls-18{fill:#8582bc;}</style><clipPath id="clippath"><rect class="cls-1" width="259.66" height="263.79" rx="67" ry="67"/></clipPath></defs><g id="Layer_1-2"><g class="cls-13"><path class="cls-4" d="M-24.06,290.65V-18.14h308.79v308.79H-24.06ZM153.5,263.45c2.49.02,4.84-.17,7.22-.01,2.22.15,4.33.36,6.54.06.67-.09,1.43,0,2.07-.06l2.69-.2c.55-.04,1.2.07,1.76.07l11.22.08c1.49.01,2.98-.13,4.45.03.81.09,1.47-.05,2.33.02l3.37.28c1.14.09,2.14.08,3.26-.03l5.32-.55c4.35-.45,4.51.09,10.22-1.81l3.73-1.24c1.3-.43,2.43-.76,3.68-1.36l5.13-2.48c3.28-1.58,7.5-4.33,10.14-6.8l2.93-2.74,1.6-1.59,4.92-5.43c.94-1.03,1.53-2.39,2.36-3.52l1.47-2c.87-1.18,1.54-2.44,2.13-3.77l.75-1.7,2.27-4.46c.96-1.89,1.44-3.65,1.8-5.79.18-1.07.68-2.33,1.01-3.42s.4-2.01.58-3.14l.61-3.92.51-4.67c.15-1.36-.33-2.89-.28-4.25l.13-3.64c.06-1.59.26-3.12.11-4.7-.17-1.87-.27-3.67-.08-5.52.16-1.6.24-5.06.22-6.76l-.13-10.31c-.02-1.74-.12-3.35-.06-5.05.03-.92.11-1.88.08-2.8l-.1-3.46c-.03-1.11,0-2.18.02-3.32l.07-4.17c.06-3.74.14-7.43-.03-11.2-.25-5.76.23-10.84,0-16.97-.05-1.31-.08-2.41,0-3.72.11-1.61.04-3.29,0-4.9l-.09-5.04v-9.72s.13-2.72.13-2.72c.06-1.18-.23-2.25-.16-3.48l.12-2.09c.07-1.18-.15-2.21-.12-3.33l.14-4.39v-14.99s-.21-3.73-.21-3.73c-.09-1.61-.5-3.25-.8-4.84l-.56-2.95-1.21-4.87c-.47-1.91-1.14-3.89-1.96-5.66l-1.49-3.24-2.29-4.83c-.47-.99-1.18-2.17-1.84-2.98l-2.34-2.89-2.82-3.53c-.84-1.05-1.6-2.45-2.57-3.29l-3.75-3.25c-.58-.5-1.49-.94-2.37-1.06l5.2,5.26c9.84,9.95,15.42,24.13,15.42,38.42l.05,137.46c0,5.73-1.08,11.18-2.83,16.52-5.65,17.29-19.05,31.04-36.2,37.13-6.09,2.16-12.39,3.32-18.94,3.32l-135.74-.02c-13.7,0-26.94-5.21-37.21-14.03-9.5-8.15-16.15-18.91-19.03-31.07-.97-4.09-1.52-8.13-1.52-12.39l.08-136.79c.02-29.42,23.8-45.92,23.87-46.47.01-.1-.32-.02-.46.02-2.56.7-7.04,5.67-7.81,6.26l-1.74,1.34c-1.15.89-1.75,2.17-2.66,3.27l-3.39,4.07c-.47.56-1,1.3-1.39,2.01l-2.89,5.23c-.58,1.04-1.37,1.77-1.86,2.83-.99,2.13-1.81,4.21-2.38,6.5l-.58,2.36-.7,2.5c-1.18,4.21-1.55,6.98-1.58,11.4l-.04,6.29-.03,4.85c0,1.21-.03,2.37-.12,3.67-.12,1.7.07,3.46.06,5.19l-.02,3.38v2.47c0,1.77.07,3.38.04,5.18l-.04,2.39c-.03,1.37.24,5.64.02,6.6-.26,1.17.06,2.18.06,3.33l.04,19.29-.11,3.79-.04,3.94-.19,9.78c-.05,2.4.29,3.46.18,6.5-.1,2.79-.09,5.52-.04,8.36.03,2,.46,3.97.07,5.97-.27,1.41.1,2.89.03,4.32-.19,3.89.3,4.8.02,8.6-.09,1.17-.08,2.2-.09,3.33l-.02,2.21c-.02,2.41-.18,4.85.01,7.27.47,6.02-.67,8.88.34,15.2l.44,2.76c.22,1.39.47,2.75.75,4.14l.46,2.25c.48,2.34,1.83,6.47,2.73,8.88,1.05,2.79,3.98,8.34,5.79,10.82l1.96,2.7,3.12,4.27c.87,1.19,2.08,2.18,3.09,3.29.78.85,1.61,1.46,2.51,2.2l3.46,2.88c-.33-.27,4.01,2.77,3.9,2.71,1.2.68,2.17,1.37,3.26,2.18,1.37,1.01,3.14,1.49,4.67,2.25,2.65,1.32,4.06,1.74,6.88,2.51l3.57.97,2.05.45c1.09.24,2.11.48,3.22.79,1.02.29,2.07.14,2.99.23,1.54.14,2.97.31,4.53.38l2.08.09,10.22-.08c2.46-.02,4.95.18,7.34-.1,1.77-.21,3.23-.03,4.95,0l14.69.18,3.28.06,1.72.03h5.45s5.65-.02,5.65-.02l3.89.02,2.5.13c2,.11,3.87-.17,5.9-.28,2.18-.11,3.85.3,6.25.09,3.59-.31,3.41.1,6.33-.04,1.52-.07,3.07-.06,4.61-.02l2.47.06,3.44-.04h2.16ZM191.64,121.73c.29,1.08,1.11,1.53,2.25,1.23,5.83-3.78,10.94-8.48,14.95-14.24,13.26-19.04,8.25-41.95-9.6-55.86-17.49-13.64-39.53-16.24-61.02-15.74-.51.01-.95.83-.8,1.31,3.89,12.58,1.88,25.33-4.38,36.75-.61,1.11-.71,2.22-.14,3.41,2.37,4.95,8.32,8.04,13.39,9.5l10.47,3c4.7,1.35,9.16,2.78,13.53,4.9,10.61,5.15,18.26,14.37,21.33,25.75ZM73.52,121.8c.99.28,1.5-.1,1.96-.78,3.1-4.61,6.98-8.47,11.61-11.55l9.76-6.49c11.46-7.63,21.61-16,28.93-27.85,6.77-10.94,9.74-23.69,5.06-36.03-.38-.99-1.21-1.6-2.3-1.53-23.85,1.52-47.85,6.16-67.2,21.04-15.5,11.92-22.3,28.26-24.94,47.22-.08.6.03,1.47.75,1.63,12.6,2.78,25.44,7.13,36.38,14.34ZM163.78,144.5c4.81-7.85,13.19-11.89,20.99-16,1.41-.74,1.65-1.74,1.32-3.21-2.19-9.74-8.13-17.9-16.93-22.67-3.5-1.9-7.03-3.28-10.88-4.37l-11.31-3.21c-6.39-1.81-13.74-4.84-17.66-10.4-.27-.38-.82-.82-1.21-.84-.42-.02-.9.42-1.22.84-8.51,11.11-18.61,18.56-30.28,26.04-6.52,4.17-12.19,7.88-16.37,14.57-.54.86-.09,1.86.79,2.33,11.38,9.91,19.12,23.32,22.43,38.02.59.66,1.55.33,2.07-.28,8.04-9.49,18.93-16.02,31.09-18.85,8.13-1.89,16.38-1.9,24.57-.43,1.29.23,1.98-.51,2.61-1.53ZM183.86,153.86l-13.83,25.02c-.82,1.49-1.48,2.76-1.96,4.26-4.89.81-9.15,3.64-12.38,7.47-2.63,3.12-4.08,6.62-5.52,10.24-7.19,18.1-15.67,18.96-16.15,20.81-.07.29.31,1.06.78,1.17,11.57,2.72,24.92.34,34.29-7.3,6.03-4.92,10.12-11.49,10.51-19.66.1-2.13-.46-4.27-.9-6.28,1.31-.55,1.85-2.01,2.83-3.14l18.07-21.08c2.28-2.65,4.73-5.12,6.88-8.09l11.48-15.82c7.54-10.39,17.65-25.13,22.94-36.59,1.57-3.39,2.84-7.78-.5-10.44s-6.96-.59-9.81,1.85c-2.48,2.12-4.69,4.2-6.99,6.58-13.17,13.6-30.7,34.67-39.73,51.01ZM98.15,176.14c.35-.67.49-1.48.4-2.14-2.37-17.62-10.84-33.81-25.24-44.44-10.73-8.08-24.29-12.88-37.76-15.7-1.64,20.05.8,41.22,8.2,59.83,8.51,21.39,25.02,38.46,47.9,44.77-.99-6.37-1.49-12.33-.77-18.59.96-8.35,3.37-16.24,7.27-23.72ZM149.45,188.6c3.16-4.59,7.35-8.07,12.52-10.16,1.16-.47,1.59-1.54,1.23-2.75l-2.28-7.56c-1.45-4.8-1.67-9.6-.8-14.52.11-.65-.8-1.32-1.4-1.41-4.96-.75-9.72-.98-14.71-.46-16.88,1.75-31.71,11.68-39.82,26.58-3.49,6.41-5.7,13.27-6.74,20.54-.94,6.59-.64,13.06.72,19.52.27,1.3,1.06,1.9,2.34,2.08,11.4,1.58,22.82.75,32.45-6.06,10.55-7.46,9.85-16.12,16.5-25.8ZM218.29,179.67c2.32.01,4.58-.55,6.3-2.06s2.58-3.54,2.2-5.81c-.31-1.82-1.54-3.59-3.46-4.54-5.63-2.81-12.58,1.35-16.61,5.51-2.61,2.69-4.52,5.76-6.03,9.21-.15.34.1,1.14.41,1.26.35.14.99,0,1.35-.24,4.85-3.28,10.16-3.36,15.84-3.33ZM209.06,204.11c1.33-.46,2.61-1.76,3.1-3.41.66-2.2-.08-4.45-1.72-6.03-4.18-4.02-11.29-2.75-15.79-.11-.3.17-.53.93-.46,1.21.32,1.27,3.26.87,6.89,4.86,2.26,2.49,4.41,4.71,7.98,3.47ZM193.33,223.74c1.84.02,3.58-.97,4.57-2.65,1.43-2.45,1.16-5.3-.22-7.82-2.25-4.09-6.15-6.93-10.73-8.07-.34-.09-.99.13-1.19.35-1.14,1.26,2.43,3.25,2.11,10.54-.17,3.93,1.55,7.62,5.46,7.65ZM177.7,226.85c.44-1.32.38-2.75.09-4.02s-1.57-1.99-2.77-1.49c-2.53,1.05-5.01,2.37-4.95,5.21.02.96.6,2.16,1.56,2.73,2.28,1.38,5.2.19,6.07-2.43Z"/><path class="cls-17" d="M73.52,121.8c-10.94-7.21-23.78-11.56-36.38-14.34-.73-.16-.84-1.03-.75-1.63,2.65-18.96,9.44-35.3,24.94-47.22,19.35-14.88,43.35-19.52,67.2-21.04,1.09-.07,1.93.54,2.3,1.53,4.68,12.34,1.7,25.09-5.06,36.03-7.32,11.84-17.47,20.22-28.93,27.85l-9.76,6.49c-4.63,3.08-8.51,6.93-11.61,11.55-.46.68-.96,1.06-1.96.78ZM83.85,87.47c0,1.35,1.78,1.86,2.64,1.79.98-.09,2.26-.87,2.26-2.13v-20.34c0-.71-.69-1.43-1.16-1.66-.51-.24-1.74-.42-2.22-.11l-6.59,4.18c-1.07.68-.91,2.4-.31,3.15.77.97,1.95,1.07,3.04.47l2.24-1.23.1,15.87Z"/><path class="cls-10" d="M163.78,144.5c-.63,1.02-1.32,1.76-2.61,1.53-8.19-1.46-16.43-1.46-24.57.43-12.16,2.83-23.05,9.35-31.09,18.85-.51.6-1.47.94-2.07.28-3.32-14.7-11.05-28.1-22.43-38.02-.87-.47-1.32-1.47-.79-2.33,4.18-6.68,9.86-10.39,16.37-14.57,11.67-7.48,21.78-14.93,30.28-26.04.32-.42.81-.87,1.22-.84.38.02.94.46,1.21.84,3.92,5.56,11.27,8.58,17.66,10.4l11.31,3.21c3.84,1.09,7.37,2.47,10.88,4.37,8.81,4.77,14.75,12.93,16.93,22.67.33,1.48.09,2.47-1.32,3.21-7.8,4.11-16.18,8.15-20.99,16ZM124.26,129.81c-.68.58-1.14,1.6-.8,2.57,1.2,3.49,8.06,4.54,12.3,2.88s6.02-6.81,3.52-10.65c-.56-.86-1.54-1.41-2.43-2.11,2.03-1.39,3.11-3.53,3-5.93-.1-2.19-1.15-4.35-3.27-5.51-5.37-2.94-12.5-.05-12.68,3.4-.05,1.04.68,1.92,1.47,2.24s1.8.04,2.46-.68c1.56-1.69,4.34-2.22,6.16-.67,1.1.94.99,2.6.39,3.66-1.65,2.9-6.11.2-6.12,3.71,0,1.31.98,2.23,2.46,2.15.78-.04,1.77.08,2.5.3,1.5.45,2.2,1.8,2.19,3.21,0,1.31-.91,2.42-2.29,2.86-5.04,1.61-6.43-3.52-8.87-1.43Z"/><path class="cls-6" d="M191.64,121.73c-3.07-11.39-10.73-20.61-21.33-25.75-4.38-2.12-8.83-3.55-13.53-4.9l-10.47-3c-5.07-1.45-11.02-4.55-13.39-9.5-.57-1.19-.47-2.3.14-3.41,6.26-11.42,8.27-24.17,4.38-36.75-.15-.48.29-1.29.8-1.31,21.49-.5,43.53,2.1,61.02,15.74,17.85,13.92,22.85,36.83,9.6,55.86-4.01,5.76-9.12,10.46-14.95,14.24-1.15.3-1.96-.15-2.25-1.23ZM168.48,81.48h12.91c1.12,0,1.75-1.29,1.8-2.08.06-.87-.48-2.29-1.61-2.31l-7.21-.16c3.38-3.67,7.81-6.87,8.2-11.88.1-2.8-1.07-5.4-3.56-6.71-4.83-2.54-11.42-.08-12.27,4.74-.25,1.42.56,2.55,1.83,2.79,3.24.59,1.81-3.39,5.21-3.94,1.16-.19,2.36,0,3.12,1,1.92,2.51-.91,5.9-2.72,7.68l-6.82,6.71c-.6.59-.86,1.69-.69,2.47.14.62.8,1.69,1.81,1.69Z"/><path class="cls-18" d="M98.15,176.14c-3.9,7.48-6.31,15.37-7.27,23.72-.72,6.26-.22,12.22.77,18.59-22.89-6.31-39.4-23.38-47.9-44.77-7.4-18.61-9.85-39.77-8.2-59.83,13.48,2.82,27.03,7.63,37.76,15.7,14.4,10.64,22.87,26.82,25.24,44.44.09.66-.05,1.47-.4,2.14ZM73.79,171.18c1.88.32,3.04-.15,3.41-1.57.25-.97-.1-2.66-1.44-2.79l-2.02-.19-.03-14c0-1.49-1.16-2.43-2.51-2.56-1.61-.16-2.75.42-3.66,1.69l-10.72,15.01c-.48.68-.54,2.07-.37,2.76.16.63.82,1.68,1.71,1.69l10.56.11c0,1.64-.06,2.98.16,4.28s1.62,1.66,2.63,1.55,2.15-.87,2.18-2.13l.11-3.83Z"/><path class="cls-5" d="M153.5,263.45h-2.16s-3.44.03-3.44.03l-2.47-.06c-1.54-.04-3.09-.05-4.61.02-2.93.14-2.75-.27-6.33.04-2.39.21-4.07-.2-6.25-.09-2.04.11-3.9.38-5.9.28l-2.5-.13-3.89-.02-5.65.03h-5.45s-1.72-.04-1.72-.04l-3.28-.06-14.69-.18c-1.72-.02-3.17-.2-4.95,0-2.39.28-4.88.08-7.34.1l-10.22.08-2.08-.09c-1.56-.07-2.98-.24-4.53-.38-.93-.08-1.98.06-2.99-.23-1.12-.31-2.13-.55-3.22-.79l-2.05-.45-3.57-.97c-2.82-.76-4.22-1.19-6.88-2.51-1.53-.76-3.3-1.24-4.67-2.25-1.09-.81-2.06-1.5-3.26-2.18.11.06-4.23-2.99-3.9-2.71l-3.46-2.88c-.9-.75-1.73-1.35-2.51-2.2-1.01-1.11-2.22-2.1-3.09-3.29l-3.12-4.27-1.96-2.7c-1.81-2.49-4.73-8.04-5.79-10.82-.91-2.4-2.26-6.54-2.73-8.88l-.46-2.25c-.28-1.39-.53-2.75-.75-4.14l-.44-2.76c-1.01-6.32.13-9.18-.34-15.2-.19-2.42-.03-4.87-.01-7.27l.02-2.21c0-1.13,0-2.15.09-3.33.29-3.8-.21-4.72-.02-8.6.07-1.43-.31-2.9-.03-4.32.39-2-.04-3.97-.07-5.97-.05-2.84-.06-5.57.04-8.36.11-3.04-.23-4.11-.18-6.5l.19-9.78.04-3.94.11-3.79-.04-19.29c0-1.14-.32-2.16-.06-3.33.21-.95-.05-5.22-.02-6.6l.04-2.39c.03-1.81-.05-3.42-.04-5.18v-2.47s.02-3.38.02-3.38c0-1.74-.18-3.5-.06-5.19.09-1.3.11-2.45.12-3.67l.03-4.85.04-6.29c.03-4.42.41-7.19,1.58-11.4l.7-2.5.58-2.36c.56-2.28,1.39-4.36,2.38-6.5.5-1.07,1.29-1.79,1.86-2.83l2.89-5.23c.39-.7.92-1.44,1.39-2.01l3.39-4.07c.91-1.09,1.51-2.37,2.66-3.27l1.74-1.34c.76-.59,5.25-5.55,7.81-6.26.14-.04.47-.12.46-.02-.07.56-23.85,17.05-23.87,46.47l-.08,136.79c0,4.26.55,8.29,1.52,12.39,2.89,12.16,9.54,22.92,19.03,31.07,10.28,8.82,23.51,14.02,37.21,14.03l135.74.02c6.55,0,12.85-1.16,18.94-3.32,17.15-6.08,30.55-19.84,36.2-37.13,1.74-5.34,2.83-10.79,2.83-16.52l-.05-137.46c0-14.29-5.58-28.47-15.42-38.42l-5.2-5.26c.88.12,1.8.56,2.37,1.06l3.75,3.25c.96.84,1.73,2.24,2.57,3.29l2.82,3.53,2.34,2.89c.66.82,1.37,1.99,1.84,2.98l2.29,4.83,1.49,3.24c.81,1.77,1.48,3.75,1.96,5.66l1.21,4.87.56,2.95c.3,1.59.7,3.23.8,4.84l.22,3.73v14.99s-.15,4.39-.15,4.39c-.04,1.13.18,2.16.12,3.33l-.12,2.09c-.07,1.23.22,2.3.16,3.48l-.15,2.72v9.72s.1,5.04.1,5.04c.03,1.62.11,3.3,0,4.9-.09,1.31-.06,2.41,0,3.72.24,6.13-.24,11.21,0,16.97.16,3.77.09,7.46.03,11.2l-.07,4.17c-.02,1.14-.05,2.21-.02,3.32l.1,3.46c.03.92-.05,1.88-.08,2.8-.06,1.7.04,3.31.06,5.05l.13,10.31c.02,1.7-.05,5.15-.22,6.76-.19,1.85-.09,3.65.08,5.52.15,1.58-.05,3.11-.11,4.7l-.13,3.64c-.05,1.36.43,2.89.28,4.25l-.51,4.67-.61,3.92c-.18,1.13-.25,2.07-.58,3.14s-.83,2.35-1.01,3.42c-.36,2.14-.83,3.9-1.8,5.79l-2.27,4.46-.75,1.7c-.59,1.34-1.26,2.59-2.13,3.77l-1.47,2c-.83,1.12-1.42,2.48-2.36,3.52l-4.92,5.43-1.6,1.59-2.93,2.74c-2.63,2.47-6.86,5.21-10.14,6.8l-5.13,2.48c-1.25.6-2.37.93-3.68,1.36l-3.73,1.24c-5.71,1.9-5.87,1.35-10.22,1.81l-5.32.55c-1.12.12-2.12.13-3.26.03l-3.37-.28c-.86-.07-1.52.07-2.33-.02-1.47-.16-2.96-.02-4.45-.03l-11.22-.08c-.56,0-1.2-.11-1.76-.07l-2.69.2c-.64.05-1.4-.03-2.07.06-2.21.3-4.31.08-6.54-.06-2.38-.16-4.73.03-7.22.01Z"/><path class="cls-15" d="M149.45,188.6c-6.65,9.68-5.95,18.33-16.5,25.8-9.63,6.81-21.05,7.64-32.45,6.06-1.27-.18-2.06-.78-2.34-2.08-1.36-6.46-1.66-12.93-.72-19.52,1.04-7.27,3.25-14.13,6.74-20.54,8.11-14.9,22.94-24.83,39.82-26.58,4.99-.52,9.75-.29,14.71.46.59.09,1.51.77,1.4,1.41-.87,4.92-.64,9.72.8,14.52l2.28,7.56c.36,1.21-.06,2.28-1.23,2.75-5.17,2.09-9.36,5.57-12.52,10.16ZM125.19,190.61c3.43,2.43,8.43,2.68,11.93.19,3.78-2.68,4.22-8.44,1.14-11.73-2.3-2.46-5.49-2.52-8.62-1.84l.27-4.02,7.58-.07c1.18-.01,1.82-1.26,1.82-2.18s-.64-2.2-1.81-2.2l-9.75-.03c-1.21,0-2.16.92-2.24,2.11l-.67,9.38c-.05.66.72,1.44,1.2,1.65,2.34,1.04,4.26-2.08,7.67-.25,1.41.76,1.81,2.43,1.45,3.89s-1.63,2.43-3.28,2.55c-1.47.11-2.9-.4-4.08-1.25s-2.66-.73-3.37.5c-.54.92-.51,2.41.75,3.31Z"/><path class="cls-8" d="M199.59,165.37c-.16-.73-.69-1.33-1.02-1.95-.41-.76-1.19-1.24-1.7-1.89-1.57-2.02-3.75-3.42-5.95-4.71-1.15-.67-3.2-1.74-4.15-1.95-.24-.05-.69-.22-.94-.29-1.47-.42-1.82-.2-1.98-.71,9.03-16.34,26.57-37.41,39.73-51.01,2.3-2.37,4.51-4.46,6.99-6.58,2.85-2.43,6.58-4.4,9.81-1.85s2.07,7.05.5,10.44c-5.29,11.46-15.4,26.2-22.94,36.59l-11.48,15.82c-2.15,2.97-4.61,5.44-6.88,8.09Z"/><path class="cls-8" d="M168.07,183.14c.72-.12,2.09.31,2.71.51.14.05.41.18.56.18l1.59,1.09,3.44,2.3,2.32,2.38c.44,2.01,1,4.15.9,6.28-.38,8.17-4.47,14.74-10.51,19.66-.67-.02-1.52-.27-1.88-.69-.41-.49-.57-1.55-.35-2.09l1.52-3.77c.34-.85-.09-2.1-.62-2.55-.64-.54-1.93-.64-2.62-.15l-3.44,2.42c-.85.6-2.29.63-2.95-.18-1.39-1.71.85-3.75,1.13-6.39.08-.78-.49-1.76-1.01-2.04-.67-.36-1.78-.27-2.4.14l-2.91,1.93c-.55.36-1.63.41-2.27.18-.54-.19-1.01-.88-1.13-1.49,1.44-3.62,2.88-7.11,5.52-10.24,3.23-3.83,7.49-6.66,12.38-7.47Z"/><path class="cls-17" d="M169.09,215.52c-9.37,7.64-22.73,10.02-34.29,7.3-.47-.11-.85-.88-.78-1.17.48-1.85,8.96-2.71,16.15-20.81.12.61.59,1.3,1.13,1.49.64.23,1.72.19,2.27-.18l2.91-1.93c.62-.41,1.73-.5,2.4-.14.52.28,1.09,1.26,1.01,2.04-.28,2.64-2.53,4.68-1.13,6.39.66.81,2.11.78,2.95.18l3.44-2.42c.69-.49,1.99-.39,2.62.15.53.45.96,1.69.62,2.55l-1.52,3.77c-.22.54-.06,1.6.35,2.09.36.42,1.21.68,1.88.69Z"/><path class="cls-10" d="M218.29,179.67c-5.69-.03-11,.05-15.84,3.33-.35.24-.99.38-1.35.24-.31-.12-.55-.92-.41-1.26,1.52-3.45,3.43-6.52,6.03-9.21,4.03-4.16,10.97-8.32,16.61-5.51,1.91.95,3.15,2.72,3.46,4.54.38,2.27-.51,4.33-2.2,5.81s-3.98,2.07-6.3,2.06Z"/><path class="cls-6" d="M193.33,223.74c-3.9-.03-5.63-3.72-5.46-7.65.32-7.29-3.26-9.27-2.11-10.54.2-.22.85-.44,1.19-.35,4.58,1.14,8.48,3.98,10.73,8.07,1.38,2.51,1.66,5.37.22,7.82-.99,1.69-2.73,2.67-4.57,2.65Z"/><path class="cls-18" d="M209.06,204.11c-3.57,1.24-5.71-.98-7.98-3.47-3.63-3.99-6.57-3.59-6.89-4.86-.07-.27.16-1.03.46-1.21,4.5-2.64,11.61-3.91,15.79.11,1.64,1.58,2.38,3.83,1.72,6.03-.5,1.65-1.78,2.95-3.1,3.41Z"/><path class="cls-11" d="M198.57,163.42c.34.62.86,1.22,1.02,1.95l-18.07,21.08c-.97,1.14-1.52,2.6-2.83,3.14l-2.32-2.38c.17-.55.62-1.06,1.1-1.62l.65-1.46h.81s1.42.97,1.42.97l4.88-5.78,9.14-11.26c.2-.24.32-.91.25-1.18s-.56-.73-.84-.65-.89.24-1.08.17l.23-1.02c.1.1.52.34.64.21l.81-.94.48.02c.19.34.76.85,1.18,1l1.33-1.77c.23-.3.77-.51,1.17-.49Z"/><path class="cls-16" d="M185.84,154.57c-.2,0-.64,0-.71.18l-.35.87c-.31.76-.46,1.58-.35,2.3-.84.53-1.53,1.24-2.05,2.14l-5.43,9.37c-.37.64-6.03,10.04-5.3,10.17l.89.16.02.18c-1,1.08-1.96,2.21-1.76,3.72-.62-.2-1.99-.63-2.71-.51.47-1.5,1.13-2.77,1.96-4.26l13.83-25.02c.16.52.5.29,1.98.71Z"/><path class="cls-17" d="M177.7,226.85c-.87,2.62-3.78,3.81-6.07,2.43-.96-.58-1.54-1.77-1.56-2.73-.06-2.84,2.42-4.16,4.95-5.21,1.2-.5,2.5.28,2.77,1.49.28,1.28.35,2.7-.09,4.02Z"/><path class="cls-2" d="M83.85,87.47l-.1-15.87-2.24,1.23c-1.08.6-2.27.5-3.04-.47-.6-.75-.76-2.47.31-3.15l6.59-4.18c.48-.3,1.72-.13,2.22.11.47.22,1.16.94,1.16,1.66v20.34c0,1.26-1.28,2.04-2.26,2.13-.86.08-2.63-.44-2.64-1.79Z"/><path class="cls-7" d="M124.26,129.81c2.45-2.1,3.83,3.04,8.87,1.43,1.38-.44,2.28-1.55,2.29-2.86,0-1.41-.69-2.76-2.19-3.21-.73-.22-1.72-.34-2.5-.3-1.49.07-2.46-.84-2.46-2.15,0-3.51,4.47-.81,6.12-3.71.6-1.06.71-2.72-.39-3.66-1.82-1.55-4.6-1.02-6.16.67-.67.72-1.64,1.01-2.46.68s-1.53-1.2-1.47-2.24c.18-3.46,7.31-6.35,12.68-3.4,2.11,1.16,3.17,3.32,3.27,5.51.11,2.4-.98,4.54-3,5.93.89.7,1.87,1.25,2.43,2.11,2.51,3.84.77,8.98-3.52,10.65s-11.1.62-12.3-2.88c-.33-.97.12-1.98.8-2.57Z"/><path class="cls-9" d="M168.48,81.48c-1.01,0-1.68-1.07-1.81-1.69-.17-.78.09-1.88.69-2.47l6.82-6.71c1.81-1.78,4.64-5.18,2.72-7.68-.76-.99-1.96-1.19-3.12-1-3.4.55-1.97,4.53-5.21,3.94-1.28-.23-2.08-1.37-1.83-2.79.85-4.82,7.44-7.28,12.27-4.74,2.49,1.31,3.66,3.91,3.56,6.71-.39,5.01-4.82,8.21-8.2,11.88l7.21.16c1.13.03,1.67,1.44,1.61,2.31-.05.79-.67,2.07-1.8,2.07h-12.91Z"/><path class="cls-12" d="M73.79,171.18l-.11,3.83c-.04,1.26-1.16,2.02-2.18,2.13s-2.41-.27-2.63-1.55-.16-2.65-.16-4.28l-10.56-.11c-.88,0-1.55-1.06-1.71-1.69-.17-.69-.11-2.08.37-2.76l10.72-15.01c.9-1.27,2.05-1.85,3.66-1.69,1.35.13,2.51,1.07,2.51,2.56l.03,14,2.02.19c1.34.13,1.69,1.82,1.44,2.79-.37,1.42-1.54,1.89-3.41,1.57ZM68.77,166.69l-.1-8.75-6.22,8.71,6.31.04Z"/><path class="cls-3" d="M125.19,190.61c-1.26-.89-1.29-2.39-.75-3.31.72-1.23,2.22-1.33,3.37-.5s2.62,1.36,4.08,1.25c1.65-.12,2.93-1.12,3.28-2.55s-.04-3.13-1.45-3.89c-3.41-1.84-5.34,1.29-7.67.25-.48-.21-1.25-1-1.2-1.65l.67-9.38c.08-1.19,1.03-2.11,2.24-2.11l9.75.03c1.16,0,1.81,1.31,1.81,2.2s-.64,2.17-1.82,2.18l-7.58.07-.27,4.02c3.13-.67,6.32-.61,8.62,1.84,3.09,3.29,2.64,9.05-1.14,11.73-3.51,2.49-8.51,2.25-11.93-.19Z"/><path class="cls-14" d="M185.84,154.57c.26.07.7.24.94.29-.67.93-1.27,1.84-1.71,2.96l3.72,2.21,2.14-3.22c2.2,1.29,4.38,2.69,5.95,4.71l-1.99,3.15-.48-.02c.11-.54-5.77-5.08-5.39-3.31.25,1.19,3.33,2.34,3.94,4.04l-.23,1.02-13.45,17c-.12.15-.29.61-.32.71h-.81c-1-1.03-2.13-1.74-3.71-2.43-.01,1.58-2.09,2.08-3.07,2.12-.15,0-.42-.13-.56-.18-.2-1.51.77-2.64,1.76-3.72.77.39,1.66.75,2.59.92l12.69-19.48c-1.23-.97-2.31-1.62-3.84-2.08l-10.59,18.57c-.34.59-.61,1.19-.87,1.88l-.89-.16c-.73-.13,4.93-9.53,5.3-10.17l5.43-9.37c.52-.89,1.21-1.61,2.05-2.14-.1-.71.04-1.54.35-2.3l.35-.87c.07-.18.51-.17.71-.18Z"/><path class="cls-9" d="M190.93,156.82l-2.14,3.22-3.72-2.21c.44-1.12,1.04-2.03,1.71-2.96.94.21,3,1.28,4.15,1.95Z"/><path class="cls-16" d="M198.57,163.42c-.4-.02-.95.19-1.17.49l-1.33,1.77c-.42-.14-.99-.65-1.18-1l1.99-3.15c.5.65,1.29,1.13,1.7,1.89Z"/><path class="cls-16" d="M178.13,184.14l-.65,1.46c-.49.56-.94,1.06-1.1,1.62l-3.44-2.3-1.59-1.09c.98-.04,3.06-.54,3.07-2.12,1.58.69,2.71,1.4,3.71,2.44Z"/><path class="cls-16" d="M178.94,184.13c.03-.1.2-.56.32-.71l13.45-17c.19.07.79-.08,1.08-.17s.77.38.84.65-.05.94-.25,1.18l-9.14,11.26-4.88,5.78-1.42-.99Z"/><path class="cls-16" d="M194.4,164.66l-.81.94c-.12.14-.54-.11-.64-.21-.61-1.7-3.69-2.85-3.94-4.04-.38-1.78,5.5,2.77,5.39,3.31Z"/><path class="cls-5" d="M172.54,179.93l-.02-.18c.26-.69.53-1.29.87-1.88l10.59-18.57c1.54.46,2.61,1.11,3.84,2.08l-12.69,19.48c-.93-.17-1.82-.53-2.59-.92Z"/><polygon class="cls-18" points="68.77 166.69 62.45 166.65 68.67 157.94 68.77 166.69"/></g></g></svg>