<?xml version="1.0"?><svg id="Layer_2" xmlns="http://www.w3.org/2000/svg" viewBox="0 0 203.13 168.23"><defs></defs><g id="SPRITE"><g id="yCyqlh.tif"><path class="cls-1" fill="#EDE7D7" d="M80.18,162.48c-6.25,4.57-27.86,10.99-32.5-1.62l-14.18-38.52c-15.32,3.81-28.16-4.03-31.64-18.46C-2.74,84.84.26,63.23,21.52,60.26l27.92-3.91c5.99-.84,19.56-4.71,25.88-7.19C127.28,28.8,134.17,1.48,144.38.02c2.3-.33,8.17,2.89,8.53,5.44l6.2,43.35,8.26,63.58c1.64,12.62,7.52,29.24-3.7,33.09-2.05.7-6.29-.36-8.67-2.01-25.61-17.86-55.4-27.49-87.38-25.11.65,7.67,2.3,14,4.54,20.57l8.03,23.53ZM160.02,135.11l-4.41-42.07-6.42-47.26-5.36-34.25c-19.75,24.25-44.6,40.57-74.44,50.71-.76,6.26-.6,13.36.5,20.03l4.13,24.9c31.78,2.35,59.26,8.6,85.99,27.94ZM43.53,111.88l19.83-3.26c-.26-4.22-.94-10.58-1.56-15.15l-3.8-27.74c-4.58-.81-33.09,3.85-36.44,4.73-10.03,2.65-11.54,14.04-11.28,22.76.3,9.86,5.08,20.62,16.4,20.47,5.08-.07,11.65-.97,16.86-1.82ZM56.84,158.71l11.98-1.24-12.99-36.99c-3.58-.32-9.3,1.26-11.59,3.97l12.6,34.26Z"></path><path class="cls-1" fill="#EDE7D7" d="M202.11,69.44l-22.74,3.93c-2.05-.48-2.88-8.29-.78-8.75,8.28-1.82,18.54-4.34,23.6-.71,1.1.79,1.43,5.27-.09,5.53Z"></path><path class="cls-1" fill="#EDE7D7" d="M174.5,56.1c-3.41.08-4.48-6.93-2.14-9.09l12.56-11.64c.67-.62,4.31-.6,5.13-.21,1.1.52,1.09,4.64.09,5.61l-15.64,15.33Z"></path><path class="cls-1" fill="#EDE7D7" d="M193.14,99.8l-15.92-8.33c-1.41-.74-2.51-3.87-2.57-5.2-.26-5.48,24,3.72,23.63,11.66-.05,1.18-4.02,2.46-5.14,1.87Z"></path></g></g></svg>