<?xml version="1.0"?><svg id="Layer_2" xmlns="http://www.w3.org/2000/svg" viewBox="0 0 1017.71 128.85" preserveAspectRatio="none" style="display:block;width:100%;height:100%"><defs></defs><g id="SPRITE"><g id="_3Ar5Lv.tif"><path fill="#3A5E86" d="M986.83,103.83c6.37,6.02,8.72.33,11.22,4.74l-10.64,1.25,4.33,4.11-12.48,2.27c-2.37.43-6.11,3.2-9.08,4.86l9.03-.13c-3.57,3.09-7.22,4.77-11.01,5l-13.44.81-29.87.85-23.7.45-44.6-.74-316.64-.42-168.61.02-138.22.52-55.25.71-45.11.55c-13.3.16-25.93.43-39.26-.6-8.65-.67-17.04-.08-25.77.08-7.91.14-15.68-1.66-23.64-2.35-1.87-.16-17,1.2-18.11-6.27-.34-2.28.5-4.94,1.36-6.66-4.68.27-9.38-.78-13.88-1.92l.08-3.99-3.42-4.66c1.99-3.22,2.6-5.67,2.72-8.88l-1.78.21c-.45.05-.91-1.26-1.23-2.17l4.06-3.18c-3.17-1.95-2.72-12.36-2-12.81l3.98-2.48-10.46-1.07c-1.1-2.1-3.09-6.34-3.05-8.33l.19-8.33c3.02-1.35,6.59-2.44,8.38-6.21-4.02.81-8.88,1.76-10.95-1.66,1.7-2.12,3.16-3.85,1.92-7.93l13.84-2.05c.55-.08,2.06.19,2.46.23s.57-1.17.34-1.5-1.43-1.04-1.84-1.05l-7.31-.1,1.55-3.67c.38-.9,2.4-.7,3.83-.57l-1.19-3.5c-.46-1.36-6.39,2.99-6.63.27-.5-5.57,16.65-7.72,22.48-7.64-1.28-1.71-5.04-1.95-7.91-2.13l.3-2.53c.06-.46-.64-1.55-1.05-1.33-.55.3-1.85,1.59-2.08,2.15l-1.04,2.55c-.18.43-1.91-.62-2.03-1.08-.37-1.49,2.01-4.64,3.69-5.04C53.02,4.41,87.46,3.24,121.84,1.78c15.09-.64,29.51-.66,44.71-.17,4.2.13,8.57-.87,12.69-.88l93.26-.34L342.51.02l13.26-.02,32.15.02,428.75.26,46.38.42,14.49.9c-12.64-.79,63.51.26,50.37.77,9.19-.36,17.69-.03,26.76.61l11.62.81c5.75.4,11.22.93,16.57,1.85l-7.7,3.77c2.54,2.34,4.75,2.72,7.74,2.45,5.54-.51,3.6,2.67,7.01,4.05.32.13,1.91-.13,1.7-.4l-2.07-2.76,7.21.42-6.46,10,1.16,1.57c.26.36-.87,1.19-1.31,1.13l-3.29-.5,6.68,6.52-11.26,4.76c6.08,2.82,23.75.28,24.17,2.5l.67,3.48c2.51.38,4.74,1.19,6.66,2.27l1.73-1.91c.47-.52,2.54.63,2.19,1.23l-1.78,3.03c-.86,2.21-1.16,3.89-2.06-.5l-2.68,7c-.49,1.28-2.23,2.6-4.24,4.49l5.49-.14c.26,11.57-14.58,5.08-17.42,11.26,8.81,3.66,9.88-1.04,13.96,3.46,1.54,1.7-5.02-2.83-7.83,3.29,2.76-.18,4.07-.42,4.71.23l4.08,4.17c-.8.27-2.87-.46-5.84-1.93.12-2.03-6.52,12.95-5.75,5.7l.25-2.33-7.87-.2,3.81,1.93c.92.47-.59,2.5-1.51,4.4-.03.15,2.4-.62,3.11-.57l5.78.43c-3.3,6.57-5.43,0-11.51,3.3-.71.38-1.71.89-1.7.86,1.2-3.92-.95,2.38,1.88.86l2.77-1.49c.44-.24.37.92.47,2.28l9.96,1.21c1.23.15,2.45.37,3.18.64s-.77,2.81-1.56,2.93c-19.86,2.93-.58.12-18.53,5.27Z"></path></g></g></svg>