<?xml version="1.0"?><svg xmlns="http://www.w3.org/2000/svg" viewBox="0 0 289.72 744.48" style="display:block;width:100%;height:auto"><defs></defs><g id="m-proto" class="motif"><g id="BLOCKS"><path fill="#D7CDB7" d="M238.48,735.06c-2.05-.85-4.46-1.73-6.62-.45l5.65,1.39c-.3,1.55-1.8,1.67-3.43,2.18-1.39.44-3.04,1.83-4.56,2.16-2.09.45-5.56.12-6.66,1.78-1.61,2.41-3.48,2.5-6.1,2.27l-14.25-1.27c-1.4-.12-2.64-.33-3.45-1.14,5.64-3.26,11.75-5.81,17.96-8.66l10.5-4.83c1.12-.51,2.22-1.1,3.46-.98.01.44.32,1.12.7,1.07l1.48-.19c1.77-.23,3.81,2.02,5.75-.14l-7.93-.75c-.05-1.73,1.72-.02,3.25-3.17l5.43-.53-4.71-1.28c-.22-.8,10.55.36,11.17.6l4.39,1.71c-.28,1.09-1.69,2.77-2.72,3.54l-.1,2.12c-.02.43-1.01,1.14-1.44,1.32l-5.3,2.17c-.88.36-2,.59-2.5,1.08ZM220.46,733.31c3.46.69,6.8,1,10.63.52,1.38-.28-12.69-1.92-10.63-.52Z"></path><path fill="#D7CDB7" d="M238.48,735.06l-.97.94-5.65-1.39c2.17-1.28,4.57-.4,6.62.45Z"></path><path fill="#FBF8F0" d="M234.08,680.17v-2.67c.45-.1,1.08.79,1.08,1.33s-.63,1.45-1.08,1.34Z"></path><path fill="#FBF8F0" d="M234.07,675.67v-1.67c.28-.06,1.05.46,1.05.84s-.77.89-1.05.83Z"></path><path fill="#FBF8F0" d="M234.03,700.67l.04-1.68c.29-.06,1.1.46,1.06.84s-.85.91-1.1.84Z"></path><path fill="#8C9B6E" d="M99.44,640.56l.61-1.55.4.81c.14.29-.7.78-1.02.74Z"></path><path fill="#8C9B6E" d="M105.57,595.13c-.13.11-.77.46-1.07.53.14-.1.78-.43,1.07-.53Z"></path><path fill="#FBF8F0" d="M184.56,740.47c-.16-.02-.4-.21-.54-.31l.54.31Z"></path><polygon fill="#8C9B6E" points="66.83 724.64 57.11 723.5 57.02 718.03 56.95 698.63 56.98 684.34 56.93 655.1 68.88 656.1 86.34 657.71 117.07 660.69 116.96 730.55 66.83 724.64"></polygon><path fill="#DCD1B9" d="M170.6,737.05l-.17-31.07c-.01-2.76-1.07-5.96-2.3-8.55-2.68-5.66-8.14-9.1-13.89-9.33-6.2-.25-11.92,2.57-15.01,8.06-2.41,4.28-2.58,9.04-2.65,13.9l-.18,12.36-.02,4.56c0,2,.06,3.74-.06,5.75l-11.54-1.3-5.83-.63v-70.06c1.32-1.13,2.95-2.18,4.51-2.02l72.11,7.12-.06,33.34.04,40.76-19-2.33-5.93-.56Z"></path><path fill="#2E4A6B" d="M121.51,656.53l-19.03-1.92-.41-9.52c-.11-2.63-.05-5.3-.01-7.97l.16-11.14.12-27.06c3.22.11,6.06.28,9.22.55l51.06,4.43v56.83s-41.12-4.19-41.12-4.19Z"></path><path fill="#2E4A6B" d="M164.49,659.35l.04-24.14-.03-4.08-.12-26.92c4.93-2.5,9.55-4.37,14.4-6.42l14.03-5.94.13,22.06-.13,31.21c-6.21,3.46-12.03,6.23-18.12,9.22l-10.2,5Z"></path><path fill="#3A5E86" d="M156.36,601.48l-11.33-.93-9.5-.84-7.04-.63-12.73-1.09c-3.12-.27-5.79-.4-9.46-1l30.17-10.94,8.08.85,44.7,4.07-25.72,11.26c-2.37-.36-4.61-.56-7.17-.77Z"></path><path fill="#FBF8F0" d="M196.63,664.03l-30.22-3.07,27.7-14.41c.58-.3,1.16-1.69,1.48-2.03l33.48,2.98-32.43,16.54Z"></path><path fill="#8C9B6E" d="M138.54,729.01l-.29-7.96c-.13-3.56-.16-6.9.02-10.53.05-.9-.2-2.59-.06-3.35l.79-4.48c1.33-7.51,7.36-13.27,15.12-12.71-.76,4.65-.8,8.96-.8,13.55v18.22s-14.79,7.26-14.79,7.26Z"></path><path fill="#8C9B6E" d="M117.94,657.6l.02,1.5-7.47-.64-20.98-2.27-28.37-2.81c3.11-1.27,5.56-1.94,8.37-2.89l26.41-8.91,4.08.72.13,13.56c2.53.37,4.32.59,7.11.83l10.7.9Z"></path><path fill="#FBF8F0" d="M231.87,695.1l-1.59.1c-3.25,3.7-7.33,6.11-9.85,10.87,3.33-2.17,8.05-8.47,11.46-10.5l.13,2.93c-1.1.17-1.83.94-2.74,1.91l-21.63,22.77c-2.92,3.07-6.42,5.41-8.14,9.6l14.18-14.47,7.41-7.82c2.71-2.86,6.32-7.01,9.16-9.37.37-.31,1.59.84,1.39,1.17-.15.25-.47.93-.71,1.17-5.51,5.49-10.84,11.57-16.28,17.15l-9.42,9.68-6.37,6.91c-.3.33-1.43.71-1.59.72l-.12-1.89c.08-.07.3-.37.3-.54l-.19-4.38.91-2.07c1.03-.51,1.95-1.46,2.91-2.46l10.74-11.19c2.84-2.96,6.08-5.36,8.05-9.19l-19.88,19.77c-.69.69-1.41,1.83-1.91,2.52-.67-.91-.67-2.22-.58-3.46-.03.04,1.02-.31,1.26-.55l22.25-22.71c.77-.79,1.18-1.63,1.49-2.23,1.76-1.3,7.58-7.1,8.58-8.92l.97.15c.25.04.28.89.24,1.16l-.43,3.14Z"></path><path fill="#FBF8F0" d="M231.92,651.09c-2.04,1.12-10.62,10.27-11.81,11.97-.17.24-.43.78-.58,1.04-.15.07-.57,0-.64.16l-.36.84c-.25.14-.78.34-.98.54l-19.86,18.84c-.72-.61-.43-2.73.33-3.45.77-.31,1.61-.9,2.33-1.62l15.05-14.91c2.07-2.05,4.16-3.79,6.08-5.95,2.15-2.42,4.22-4.64,6.03-6.95,1.03-1.31,2.81-2.38,4.62-3.31.09,1.12,0,1.99-.2,2.8Z"></path><path fill="#FBF8F0" d="M232.01,652.51c.02.32.18.9.25,1.23-1.39,2.17-3.53,3.77-5.38,5.71l-6.6,6.9-6.16,6.27-12.57,13.02c-.44.45-1.59.97-1.6,1.48l.09.58-1.42.39-1.16-.5c-.07-.24-.06-.76,0-1l.95-.27c.17-.05.18-.52.2-.69l.04-.41c5.95-5.2,11.33-11.06,17.17-16.8.75-.74,1.4-1.95,1.72-2.78.27-.1.84-.3.98-.54.32-.18.82-.69,1-1,.27-.13.82-.4,1.04-.6,4.5-3.97,7.46-7.82,11.45-10.98Z"></path><path fill="#FBF8F0" d="M232.47,656.7l-.07,2.83c-.9.03-1.35.92-1.92,1.43-11.47,10.34-21.73,21.92-32.49,33.29l-.47-3.23,2.2-1.77c.28-.23.36-1.18.31-1.55.29-.08.76-.43,1.03-.56,1.64-.8,3.85-3.55,5.39-5.1l23.91-24.07c.64-.64,1.43-1.1,2.1-1.27Z"></path><path fill="#FBF8F0" d="M232.1,661.13c.22,1.08.19,2.5-.15,3.48-1.08.53-2.42,1.46-3.43,2.5l-15.42,16.04-9.63,9.87c-2,2.05-3.9,4.17-4.36,7.14,1.96-2.49,3.62-4.9,5.82-7.17l16.28-16.75c2.21-2.27,8.43-9.47,10.73-10.25,0,.15.1.38.16.56v.58s-.05,1.95-.05,1.95c-2.9,1.78-8.05,7.4-10.7,10.35-3.67,4.08-7.72,7.52-11.58,11.48l-11.84,12.14c-.65-1.53-.63-3.36-.72-5.09,3.83-5.41,8.29-10.24,13.01-15.17l12.25-12.78,5.49-5.5c1.14-1.14,2.26-2.17,2.52-3.56l1.62.17Z"></path><path fill="#FBF8F0" d="M232.11,676.05l.31.54c.13,1.06-.49,3.15-1.41,3.89-5.7,4.61-10.27,10.61-15.29,16.26l-3.76,4.23-10.76,12.29c-1.19,1.36-2.57,2.87-2.51,4.59l10.27-11.78,13.78-15.77,8.4-9.26c.21-.07.9-.38.98-.11l.34,1.11c-.05.15-.08.43-.03.54l-.37,1.98c-3.2,1.72-11,10.79-13.82,14.09-3.81,4.46-8.46,7.65-10.94,12.86l22.11-23.54c.83-.88,1.7-1.58,2.59-1.96.29,1.44-.02,2.92-.91,4.11-.76-.31-8.31,8.09-8.67,8.99-3.22,2.91-6.12,6.23-9.33,9.49l-11.17,11.34c-1.41,1.43-2.72,2.77-4.3,3.65-1.81-4.56,2.01-5.68.73-5.94l-.77-.16-.39-.48c.02-1.23.24-2.56.93-3.48.73-.36,1.43-1.04,2.08-1.83l8.39-10.21c1.67-1.14,9.7-9.69,9.86-11.42.45-.23,1.21-.98,1.59-1.47,4.53-5.8,7.2-8.3,11.43-13.49l.66.92ZM206.02,712.32c0-.14-.11-.25-.25-.25s-.25.11-.25.25.11.25.25.25.25-.11.25-.25ZM204.99,712.68l-2.29,2.5.8.73,2.29-2.5-.8-.73ZM203.02,716.31c0-.14-.11-.25-.25-.25s-.25.11-.25.25.11.25.25.25.25-.11.25-.25Z"></path><path fill="#FBF8F0" d="M232.28,717.52l-.3,2.96c-2.1.72-3.72,3-4.49,5.08l-3.47,1.54c-.98-1.42,5.09-6.31,4.87-7.56,3.3-1.52.78-1.56,3.38-2.03Z"></path><path fill="#FBF8F0" d="M231.54,712.07c-.47.2-1.37.73-1.77,1.19-3.8,4.22-7.51,8.04-11.53,12.02-1.34,1.33-3.04,2.39-3.18,4.63l6.47-6.35,10.14-10.57c.33,1.03.35,2.29.26,3.5-1.64-.02-2.55,1.7-3.04,3.06-2.09.96-3.51,3.3-5.33,5.03-1.63,1.55-3.5,2.78-4.14,4.77-2.04,1.26-4.06,2.52-6.17,3.3.11-1.58.1-1.81-.56-1.13-2.28,1.9-4.05,3.6-6.5,4.17.09-.64.47-1.35,1.06-1.91,6.66-6.33,12.82-12.72,18.91-19.58,1.87-2.1,3.82-4.02,5.81-5.63.29.85-.05,2.58-.41,3.5Z"></path><path fill="#262521" d="M232.02,698.51l.33,5.96c-.62.09-1.72.59-2.23,1.14l-10.2,10.85-10.99,11.49-7.82,8.21c-.72.76-1.26,1.63-1.4,2.49-.26.37-.78.87-1.18.94l-1.04-.53c-.08-.28-.2-.84-.21-1.13.16,0,1.29-.39,1.59-.72l6.37-6.91,9.42-9.68c5.43-5.58,10.77-11.66,16.28-17.15.24-.24.57-.92.71-1.17.19-.33-1.02-1.48-1.39-1.17-2.83,2.35-6.45,6.51-9.16,9.37l-7.41,7.82-14.18,14.47c1.72-4.19,5.22-6.53,8.14-9.6l21.63-22.77c.91-.96,1.65-1.74,2.74-1.91Z"></path><path fill="#FBF8F0" d="M232.41,671.08c-.14,1.07-.67,2.89-1.39,3.92-2.43,1.48-4.32,3.9-6.37,6.22-3.04,3.44-6.05,6.64-9.17,9.73-.85.11-1.69.84-2.11,1.61-2.98,1.07-11.79,10.96-14.38,13.89-.28.31-1.39.66-1.62.65.1-.88.3-1.82.55-2.65,1.5-1.19,2.8-2.68,4.2-4.26,3.83-4.33,7.96-7.94,12.14-11.85s7.49-8.11,11.44-12.03l4.31-4.27c.62-.61,1.62-1.04,2.39-.97Z"></path><path fill="#FBF8F0" d="M232.34,704.47c.05.91-.32,2.39-.83,3.08-1,.61-2.03,1.49-2.96,2.51l-6.46,7.1-16.87,17.16c-.52.53-1.06,1.69-1.26,2.27-1.28.91-2.79,1.71-4.27,2.07.14-.87.68-1.74,1.4-2.49l7.82-8.21,10.99-11.49,10.2-10.85c.52-.55,1.61-1.05,2.23-1.14Z"></path><path fill="#FBF8F0" d="M198.01,680.6c-1.18-.58-1.1-2.75,0-3.44,2.73-1.73,4.73-4.49,7.15-6.94l7.42-7.49c1.04.46,7.82-6.96,7-7.66,1.86-1.27,3.89-2.65,6.01-3.34-3.59,5.73-9.14,9.95-14.06,14.84l-10.04,9.97c-1.31,1.3-2.46,2.71-3.47,4.05Z"></path><path fill="#262521" d="M230.49,660.95c-.26,1.4-1.38,2.42-2.52,3.56l-5.49,5.5-12.25,12.78c-4.72,4.93-9.19,9.76-13.01,15.17-.12-2.29-.23-4.8.32-6.95l.47,3.23c10.76-11.37,21.02-22.95,32.49-33.29Z"></path><path fill="#262521" d="M232.4,659.53c-.01.41-.19,1.18-.3,1.6l-1.62-.17c.57-.51,1.02-1.4,1.92-1.43Z"></path><path fill="#262521" d="M231,680.48l.12.56-8.4,9.26-13.78,15.77-10.27,11.78c-.06-1.72,1.32-3.23,2.51-4.59l10.76-12.29,3.76-4.23c5.02-5.65,9.59-11.65,15.29-16.26Z"></path><path fill="#262521" d="M232.26,653.74c.22,1.08.4,2.07.22,2.96-.67.16-1.46.62-2.1,1.27l-23.91,24.07c-1.54,1.55-3.76,4.3-5.39,5.1l-1.12-.02c.01-.52,1.17-1.03,1.6-1.48l12.57-13.02,6.16-6.27,6.6-6.9c1.85-1.94,3.99-3.54,5.38-5.71Z"></path><path fill="#262521" d="M232.41,671.08c-.77-.07-1.78.35-2.39.97l-4.31,4.27c-3.95,3.92-7.36,8.21-11.44,12.03s-8.31,7.52-12.14,11.85c-1.4,1.59-2.7,3.07-4.2,4.26v-1.4s11.85-12.14,11.85-12.14c3.86-3.96,7.9-7.4,11.58-11.48,2.66-2.95,7.81-8.57,10.7-10.35.21.52.43,1.47.36,1.99Z"></path><path fill="#262521" d="M231.95,664.6v1.39c-2.31.78-8.53,7.98-10.74,10.25l-16.28,16.75c-2.2,2.27-3.86,4.68-5.82,7.17.46-2.97,2.36-5.09,4.36-7.14l9.63-9.87,15.42-16.04c1.01-1.05,2.35-1.98,3.43-2.5Z"></path><path fill="#262521" d="M227.49,651.6c-1.81,2.31-3.88,4.54-6.03,6.95-1.91,2.15-4.01,3.9-6.08,5.95l-15.05,14.91c-.73.72-1.56,1.31-2.33,1.62v-.43c1.01-1.34,2.16-2.75,3.47-4.05l10.04-9.97c4.92-4.89,10.47-9.11,14.06-14.84.56-.18,1.38-.24,1.91-.14Z"></path><path fill="#FBF8F0" d="M217.93,655.61c-.01.34-.35,1.34-.69,1.69l-5.17,5.31c-4.64,2.63-10.21,10.51-14.58,13.46-.29-.73.21-2.25.65-2.98,1.3-.63,2.17-1.92,3.26-3.14,2.75-3.09,5.85-5.71,8.04-8.96.19-1.27,1.4-1.81,2.66-2.44l5.84-2.93Z"></path><path fill="#8C9B6E" d="M231.52,707.55c.12.27.35.75.44,1.01-1.99,1.6-3.94,3.52-5.81,5.63-6.09,6.86-12.25,13.25-18.91,19.58-.59.56-.97,1.26-1.06,1.91-.23.38-.56.93-.93.92h-1.28c.2-.58.74-1.75,1.26-2.28l16.87-17.16,6.46-7.1c.93-1.02,1.95-1.9,2.96-2.51Z"></path><path fill="#262521" d="M232.04,684.57c-.07.36-.06,1.08-.06,1.45-.89.38-1.76,1.08-2.59,1.96l-22.11,23.54c2.48-5.21,7.13-8.4,10.94-12.86,2.82-3.3,10.62-12.37,13.82-14.09Z"></path><path fill="#262521" d="M222.5,699.58c-.31.6-.72,1.44-1.49,2.23l-22.25,22.71c-.24.24-1.29.59-1.26.55l.1-1.45c1.58-.87,2.89-2.22,4.3-3.65l11.17-11.34c3.21-3.26,6.11-6.58,9.33-9.49l.11.45Z"></path><path fill="#262521" d="M220.56,663.49c-.23.2-.77.47-1.04.6.15-.26.41-.79.58-1.04l.46.44Z"></path><path fill="#262521" d="M217.54,665.64c-.32.83-.97,2.04-1.72,2.78-5.83,5.74-11.21,11.6-17.17,16.8-.27-.2-.74-.54-.98-.74l19.86-18.84Z"></path><path fill="#262521" d="M218.52,665.1c-.14.24-.71.44-.98.54.21-.2.73-.4.98-.54Z"></path><path fill="#262521" d="M219.52,664.1c-.18.31-.68.82-1,1l.36-.84c.06-.15.49-.09.64-.16Z"></path><path fill="#DCD1B9" d="M207.57,701.18c-3.33,3.54-6.42,7.28-9.54,10.99-.57-.88-.61-2-.65-3.16,1.25-.67,2.31-1.57,3.31-2.76,4.02-4.8,8.41-8.97,12.75-13.2l1.35.44-7.22,7.69Z"></path><path fill="#262521" d="M198.17,729.07l-.09-.55c.51-.69,1.22-1.83,1.91-2.52l19.88-19.77c-1.97,3.83-5.21,6.24-8.05,9.19l-10.74,11.19c-.96,1-1.88,1.94-2.91,2.46Z"></path><polygon fill="#262521" points="170.43 705.98 170.6 737.05 169.53 736.89 169.51 706.58 170.43 705.98"></polygon><path fill="#262521" d="M231.02,674.99c.17.03.35.04.42.13-4.22,5.19-6.89,7.69-11.43,13.49-.38.49-1.14,1.24-1.59,1.47-.83.43-2.04.75-2.94.86,3.12-3.09,6.13-6.29,9.17-9.73,2.05-2.32,3.94-4.75,6.37-6.22Z"></path><path fill="#8C9B6E" d="M231.54,712.07l.13.91-10.14,10.57-6.47,6.35c.14-2.24,1.83-3.3,3.18-4.63,4.01-3.98,7.73-7.8,11.53-12.02.41-.45,1.3-.99,1.77-1.19Z"></path><path fill="#8C9B6E" d="M207.93,661.11c.07.64-.38,1.39-1.08,1.78-3.28,3.11-6.21,6.21-8.74,9.66-.66-.58-.54-1.45-.61-2.37,1.62-1.27,3.07-2.75,4.77-4.46l-1.81-1.11,2.74-.92c1.33-1,3.03-2.44,4.72-2.57Z"></path><path fill="#262521" d="M213.37,692.56l.07.48c-4.34,4.22-8.74,8.4-12.75,13.2-1,1.2-2.06,2.09-3.31,2.76-.02-.62-.06-1.31,0-1.9.23,0,1.34-.33,1.62-.65,2.59-2.93,11.4-12.82,14.38-13.89Z"></path><path fill="#262521" d="M212.58,662.73l-7.42,7.49c-2.42,2.45-4.42,5.21-7.15,6.94-.15-.29-.41-.8-.52-1.08,4.36-2.96,9.94-10.83,14.58-13.46l.51.12Z"></path><path fill="#262521" d="M208.57,701.51l-8.39,10.21c-.65.79-1.34,1.47-2.08,1.83l-.07-1.38c3.12-3.71,6.21-7.45,9.54-10.99l1,.33Z"></path><path fill="#8C9B6E" d="M231.92,651.09l.09,1.42c-3.98,3.17-6.95,7.02-11.45,10.98l-.46-.44c1.19-1.7,9.77-10.85,11.81-11.97Z"></path><path fill="#8C9B6E" d="M231.93,716.48l.35,1.03c-2.6.47-.08.51-3.38,2.03.48-1.36,1.4-3.08,3.04-3.06Z"></path><path fill="#8C9B6E" d="M228.89,719.54c.22,1.24-5.85,6.13-4.87,7.56l-.38.05-1.35-.06c-.3-.01-.24.81-.24,1.08-.53.7-1.87.92-2.64,1.18.64-1.99,2.51-3.22,4.14-4.77,1.83-1.73,3.24-4.07,5.33-5.03Z"></path><path fill="#262521" d="M200.47,664.6l1.81,1.11c-1.7,1.71-3.15,3.19-4.77,4.46l-.32-4.52,3.28-1.05Z"></path><path fill="#262521" d="M209.43,660.99c-2.18,3.25-5.28,5.87-8.04,8.96-1.09,1.22-1.96,2.51-3.26,3.14l-.02-.55c2.53-3.44,5.46-6.55,8.74-9.66.7-.39,1.15-1.13,1.08-1.78l1.5-.12Z"></path><path fill="#D7CDB7" d="M231.97,720.48c-.08.77.6,2.52.11,3.17-1.04,1.39-3.12,1.92-4.6,1.91.77-2.09,2.39-4.37,4.49-5.08Z"></path><path fill="#8C9B6E" d="M231.07,690.14l.02.52c-1,1.82-6.82,7.63-8.58,8.92l-.11-.45c.37-.9,7.91-9.3,8.67-8.99Z"></path><path fill="#8C9B6E" d="M219.58,655.07c.82.69-5.96,8.11-7,7.66l-.51-.12,5.17-5.31c.34-.35.68-1.34.69-1.69.42-.21,1.15-.45,1.65-.54Z"></path><path fill="#D7CDB7" d="M223.64,727.15c.03.18-.18.79-.44.83l-1.15.19c0-.27-.06-1.09.24-1.08l1.35.06Z"></path><path fill="#262521" d="M231.87,695.1c-.02.11,0,.32.01.47-3.41,2.03-8.13,8.33-11.46,10.5,2.52-4.76,6.6-7.17,9.85-10.87l1.59-.1Z"></path><path fill="#8C9B6E" d="M117.96,659.1l-.02-1.5c.25.02.81.14,1.11.21.25.06-.3.92-.53,1.03l-.56.26Z"></path><path fill="#8C9B6E" d="M198.62,688.09c-.11.12-.8.79-.87.54l-.29-1.05,1.16.5Z"></path><path fill="#8C9B6E" d="M198.61,685.63c-.02.17-.03.64-.2.69l-.95.27.29-1.13c.05-.18.9.19.86.17Z"></path><path fill="#FBF8F0" d="M198.52,739.6c-.31.06-.95-.22-1.04-.53l1.04.53Z"></path><path fill="#262521" d="M232.42,676.59l-.31-.54c.1.15.29.39.31.54Z"></path><path fill="#262521" d="M197.56,717.51l-.39-.48.39.48Z"></path><path fill="#262521" d="M232.11,667.13v-.58s0,.58,0,.58Z"></path><path fill="#262521" d="M232.41,682.58c-.05-.11-.02-.39.03-.54.04.14,0,.38-.03.54Z"></path><path fill="#262521" d="M197.16,736.05l.3-.54c0,.17-.21.47-.3.54Z"></path><path fill="#D7CDB7" d="M220.46,733.31c-2.06-1.39,12.01.24,10.63.52-3.83.48-7.17.17-10.63-.52Z"></path><path fill="#D7CDB7" d="M230.99,727.51l7.93.75c-1.94,2.15-3.98-.09-5.75.14l-1.48.19c-.38.05-.69-.64-.7-1.07Z"></path><rect fill="#8C9B6E" x="202.55" y="713.75" width="3.39" height="1.08" transform="translate(-460.34 382.24) rotate(-47.49)"></rect><circle fill="#8C9B6E" cx="205.77" cy="712.32" r=".25"></circle><circle fill="#8C9B6E" cx="202.77" cy="716.31" r=".25"></circle><path fill="#262521" d="M234.08,674v1.67s0,1.83,0,1.83v2.67s0,18.82,0,18.82l-.04,1.68-.02,20.42c0,.38.05,1.21.32,1.27l.65.16,4.71,1.28-5.43.53c-1.53,3.15-3.3,1.44-3.25,3.17-1.24-.12-2.34.47-3.46.98l-10.5,4.83c-6.21,2.86-12.32,5.41-17.96,8.66-1.63.94-2.9.2-4.87-.23-2.51-.55-7.25-.95-9.64-1.28l-.54-.31c-3.9-.25-7.83-.83-12.01-1.31l-3.5-.4.04-26.87c.01-9.43-1.01-18.29-12.18-21.19-.49.75-.94,2.15-.94,3.19l-.03,29.68c-1.89.57-3.19,1.07-4.7,1.85l-12.24,6.28-.34,3.39-19.45-2.09-19.15-2.09-7.51-.85-6.92-.92-22.88-2.57-8.83-1.45c-4.21-.69-8.55-.81-12.87-1.11-1.68-.12-3.32.17-4.73-1.33l5.96-.38c3.45-.22,10.89,1.35,13.34.2v-28.06s.04-10.59.04-10.59l.11-27.95c0-.86-.3-2.12-.06-2.73s2.12-.45,2.76-.65l20.44-6.62,16.67-5.6,4.39.56c.32.04,1.16-.46,1.02-.74l-.4-.81v-12.3c1.09-1.15.06-2.94.01-4.18-.08-1.99-.17-4.35,0-6.32.12-1.43.53-4.26.33-5.68-.03-.2,0-.58,0-.8v-2.2s.07-9.32.07-9.32l.03-1.13v-.37c.67-.1,1.63-.36,2.08-.6l1.92-.45c.31-.07.94-.42,1.07-.53l14.49-5.07,15.94-5.76c1.82.35,4.04.61,5.99.76l10.99.88,12.03.96,6.53.57,11.79,1.01,11.58.98.03,53.13,7.55.6,15.77,1.41,8.25.74,7.32.51-.03,12.69.26,15.47ZM156.36,601.48c2.56.21,4.8.41,7.17.77l25.72-11.26-44.7-4.07-8.08-.85-30.17,10.94c3.67.59,6.34.73,9.46,1l12.73,1.09,7.04.63,9.5.84,11.33.93ZM164.49,659.35l10.2-5c6.09-2.99,11.9-5.76,18.12-9.22l.13-31.21-.13-22.06-14.03,5.94c-4.85,2.05-9.47,3.92-14.4,6.42l.12,26.92.03,4.08-.04,24.14ZM121.51,656.53l41.11,4.19v-56.83s-51.05-4.43-51.05-4.43c-3.17-.27-6-.44-9.22-.55l-.12,27.06-.16,11.14c-.04,2.66-.1,5.34.01,7.97l.41,9.52,19.03,1.92ZM117.96,659.1l.56-.26c.23-.11.78-.97.53-1.03-.3-.07-.86-.19-1.11-.21l-10.7-.9c-2.79-.23-4.58-.46-7.11-.83l-.13-13.56-4.08-.72-26.41,8.91c-2.81.95-5.26,1.61-8.37,2.89l28.37,2.81,20.98,2.27,7.47.64ZM196.63,664.03l32.43-16.54-33.48-2.98c-.32.34-.9,1.73-1.48,2.03l-27.7,14.41,30.22,3.07ZM227.49,651.6c-.53-.1-1.35-.05-1.91.14-2.11.69-4.14,2.07-6.01,3.34-.49.1-1.23.33-1.65.54l-5.84,2.93c-1.26.63-2.47,1.17-2.66,2.44l-1.5.12c-1.69.14-3.39,1.57-4.72,2.57l-2.74.92-3.28,1.05.32,4.52c.06.92-.05,1.78.61,2.37l.02.55c-.43.72-.93,2.25-.65,2.98.11.28.37.79.52,1.08-1.09.69-1.17,2.86,0,3.44v.43c-.76.72-1.05,2.84-.33,3.45.24.2.7.54.98.74l-.04.41s-.81-.35-.86-.17l-.29,1.13c-.06.24-.07.76,0,1l.29,1.05c.07.24.75-.43.87-.54l1.42-.39c.06.36-.03,1.32-.31,1.55l-2.2,1.77c-.54,2.15-.44,4.66-.32,6.95.09,1.73.07,3.56.72,5.09v1.4c-.26.82-.46,1.77-.56,2.65-.07.59-.03,1.29,0,1.9.05,1.16.08,2.28.65,3.16l.07,1.38c-.69.91-.91,2.25-.93,3.48l.39.48.77.16c1.28.27-2.54,1.38-.73,5.94l-.1,1.45c-.09,1.24-.09,2.55.58,3.46l.09.55-.91,2.07.19,4.38-.3.54.12,1.89c.02.29.13.85.21,1.13.09.31.72.59,1.04.53.4-.07.92-.58,1.18-.94,1.47-.36,2.99-1.15,4.27-2.07h1.28c.37.01.7-.53.93-.91,2.45-.57,4.22-2.27,6.5-4.17.65-.68.66-.45.56,1.13,2.11-.78,4.13-2.04,6.17-3.3.77-.26,2.12-.48,2.64-1.18l1.15-.19c.26-.04.47-.65.44-.83l.38-.05,3.47-1.54c1.48,0,3.56-.52,4.6-1.91.48-.65-.19-2.4-.11-3.17l.3-2.96-.35-1.03c.09-1.2.07-2.47-.26-3.5l-.13-.91c.37-.92.7-2.65.41-3.5-.09-.26-.32-.74-.44-1.01.51-.69.88-2.17.83-3.08l-.33-5.96-.13-2.93c0-.15-.03-.36-.01-.47l.43-3.14c.04-.27,0-1.12-.24-1.16l-.97-.15-.02-.52c.9-1.2,1.2-2.67.91-4.11,0-.37,0-1.1.06-1.45l.37-1.98c.03-.16.07-.41.03-.54l-.34-1.11c-.08-.27-.77.04-.98.11l-.12-.56c.92-.74,1.54-2.83,1.41-3.89-.02-.15-.21-.4-.31-.54l-.66-.92c-.07-.09-.25-.1-.42-.13.73-1.03,1.25-2.85,1.39-3.92.07-.52-.15-1.47-.36-1.99l.06-1.95v-.58c-.08-.18-.18-.41-.18-.56v-1.39c.35-.98.38-2.4.16-3.48.11-.42.29-1.19.3-1.6l.07-2.83c.19-.9,0-1.89-.22-2.96-.07-.33-.22-.91-.25-1.23l-.09-1.42c.2-.81.29-1.68.2-2.8-1.81.93-3.6,1.99-4.62,3.31ZM66.83,724.64l50.13,5.9.11-69.86-30.73-2.98-17.46-1.6-11.95-1,.05,29.24-.02,14.29.07,19.41.09,5.47,9.72,1.14ZM170.43,705.98l-.92.6.02,30.31,1.07.16,5.93.56,19,2.33-.04-40.76.06-33.34-72.11-7.12c-1.55-.15-3.19.9-4.5,2.02v70.06s5.82.63,5.82.63l11.54,1.3c.13-2.01.06-3.75.06-5.75l.02-4.56.18-12.36c.07-4.86.24-9.61,2.65-13.9,3.09-5.49,8.81-8.31,15.01-8.06,5.76.23,11.21,3.67,13.89,9.33,1.23,2.59,2.29,5.78,2.3,8.55ZM138.54,729.01l14.79-7.26v-18.22c0-4.59.05-8.9.8-13.55-7.77-.56-13.79,5.19-15.12,12.71l-.79,4.48c-.14.76.11,2.45.06,3.35-.19,3.63-.15,6.97-.02,10.53l.29,7.96Z"></path><path fill="#262521" d="M201.07,687.14c-.27.13-.74.48-1.03.56l-.09-.58,1.12.02Z"></path><path fill="#8C9B6E" d="M218.42,690.09c-.16,1.73-8.18,10.28-9.86,11.42l-1-.33,7.22-7.69-1.35-.44-.07-.48c.42-.78,1.26-1.51,2.11-1.61.9-.12,2.11-.43,2.94-.86ZM215.59,692.58c0-.18-.14-.32-.32-.32s-.32.14-.32.32.14.32.32.32.32-.14.32-.32Z"></path><circle fill="#DCD1B9" cx="215.27" cy="692.58" r=".32"></circle></g><g id="SPRITE"><path fill="#262521" d="M228.11,595.38c-.46.37-1.39.57-1.76.62s-.41-1.78.05-2.16l15.09-12.5c.37-.31,1.41-.56,1.78-.54s.87.73.76,1.09-.57,1.22-1.06,1.62l-14.85,11.88Z"></path><path fill="#262521" d="M245.07,610.51l-13.06-1.47-6.19-.69c-.37-.04-1.03-1.19-.77-1.43s1.12-.76,1.46-.73l13.76,1.24c3.59.32,5.08.38,6.28,1.95.21.28-.98,1.18-1.48,1.13Z"></path><path fill="#262521" d="M219.42,573.84c-.08.44-3.91,21.19-5.55,17.08-.15-.38-.42-1.36-.31-1.88l3.19-15.32c.16-.75.56-1.56,1.1-1.76s1.73.93,1.56,1.88Z"></path></g><g id="LEAF"><path fill="#8C9B6E" d="M23.7,699.11l.25,4.37,1.67-.43c6.15-3.6,11.02-11.68,9-20-5.04,3.45-6.61,8.63-8.72,13.56l-.65-1.54c-.32,1.17-.58,2.07-1.25,2.39-.12-5.59,6.01-15.91,11.46-18.39,1.03.48,1.37,1.93,1.56,2.92,2.14,11.03-3.31,18.6-11.9,24.75-1.04,3.62,5.75,17.44,7.58,20.75.22.4.17,1.68-.16,1.66-2.36-.11-2.25-2.09-4.96-.7-3.24,1.67-6.77,3.27-10.34,2.81s-6.74-1.37-8.94-4.27c3.35-2.83,7.97-4.65,12.21-3.73l8.32,1.8-3.96-8.86c-1.87-.72-4.39-.08-6.41.08-4.61.35-9.57-1.21-12.6-4.22l.17-.94c.4-.13,1.63-.09,2.09.21,3.45,2.29,7.67,4.14,11.99,2.33l-7.64-5.65.15-1.42c1.38.72,3.22,1.27,4.58,2.27,2.25,1.64,4,2.93,6.67,4.21l-4.6-12.52c-6.24-3.09-14.36-9.38-15.93-16.6l1.24.41.74-2.15c1.82,6.26,6.83,12.1,13.32,15.33l-2.22-12.02c-.53-2.87-2.66-5.67-4.15-8.48l1.01-1.84c2.43,2.85,4.62,6.31,5.38,10.29l1.47,7.72c.54,2.85,1.13,5.19,2.17,8.17l1.39-2.28ZM26.02,726.91c-6.03-2.54-8.36-2.29-13.99.16,3.49,2.95,9.57,2.35,13.99-.16Z"></path><path fill="#262521" d="M13.29,675.21l-1.01,1.84-6.58-5.66c-.39,3.62-1.32,7.57-.37,10.82l-.74,2.15-1.24-.41-.28-1.3.43-.81c.12-.22-.86-.42-.89-.37-.36-3.3-.17-9.93,1.32-13.31,4.41.84,6.98,4.23,9.37,7.04ZM4.18,683.08c.12-1.21.15-1.78.1-2.02l-.1,2.02Z"></path><path fill="#262521" d="M12.63,706.61l-.15,1.42c-2.91-.66-5.92-1.21-9.01-1.38,1.24,1.9,2.48,3.34,2.56,4.49l-.17.94c-.79-.46-1.81-1.15-2.35-1.9.16-.41.58-1.1.25-1.09l-1.34.03-2.33-2.64c-.4-.45.5-2.09,1.11-2.1,4.06-.07,8.08.5,11.42,2.24Z"></path><path fill="#262521" d="M25.91,696.62l.02,2.85c-.22-.08-1.1.43-.95.76.11.24.51.69.53.95l.11,1.87-1.67.43-.25-4.37c-.02-.42.2-1.21.31-1.65.67-.31.93-1.21,1.25-2.39l.65,1.54Z"></path><path fill="#8C9B6E" d="M3.51,710.17c-.31-.27-.8-.74-1.08-1.06l1.34-.03c.32,0-.09.68-.25,1.09Z"></path><path fill="#8C9B6E" d="M3.06,682.66c-.12-.15-.42-.85-.46-1.18.03-.05,1.01.14.89.37l-.43.81Z"></path><path fill="#DCD1B9" d="M12.28,677.05c1.49,2.82,3.62,5.62,4.15,8.48l2.22,12.02c-6.49-3.23-11.5-9.07-13.32-15.33-.95-3.26-.01-7.21.37-10.82l6.58,5.66Z"></path><path fill="#DCD1B9" d="M25.63,703.06l-.11-1.87c.17-.29.42-1.25.42-1.71l-.02-2.85c2.11-4.93,3.68-10.12,8.72-13.56,2.02,8.32-2.85,16.4-9,20Z"></path><path fill="#FBF8F0" d="M12.48,708.03l7.64,5.65c-4.32,1.81-8.54-.04-11.99-2.33-.46-.31-1.7-.35-2.09-.21-.08-1.15-1.33-2.59-2.56-4.49,3.1.17,6.1.72,9.01,1.38Z"></path><path fill="#FBF8F0" d="M26.02,726.91c-4.42,2.51-10.5,3.11-13.99.16,5.63-2.45,7.96-2.69,13.99-.16Z"></path><path fill="#8C9B6E" d="M4.18,683.08l.1-2.02c.05.24.02.81-.1,2.02Z"></path><path fill="#8C9B6E" d="M25.93,699.48c0,.46-.25,1.43-.42,1.71-.02-.27-.42-.71-.53-.95-.15-.33.72-.83.95-.76Z"></path></g></g><g id="ARROW_3" class="arr"><path fill="#262521" d="M12.64,596.96l7.7,4.29-1.38-4.85c-.09-.31-.1-1.25-.09-1.51s.84-.1,1.32-.13l2.78,5.73,2.39-8.5c.14-.51,1.07-1.29,1.54-1.26.55.04.98,1.38.85,2l-2.71,13.15c-.46.48-1.99.4-2.87-.14l-11.08-6.89c-.35-.22-.42-1.7-.11-1.91.39-.27,1.23-.23,1.67.01Z"></path><path fill="#262521" d="M18.78,588.69c.1.41.14,1.29.06,1.65s-1.08.42-1.91.58l-.9-4.97c-.06-.32.02-1.23.3-1.26l1.45-.14,1.01,4.15Z"></path><path fill="#262521" d="M21.33,558.75c-.2.49-1.26.94-1.95.78-.59-1.18,1.18-5.19,2.19-5.78.28-.16,1.27,0,1.29.31s-.09,1.15-.23,1.5l-1.3,3.19Z"></path><path fill="#262521" d="M17.44,579.34c0,.21-.15.8-.34.82l-1.75.2.12-4.93c0-.4.33-1.13.52-1.42s1.41.37,1.41.72l.03,4.61Z"></path><path fill="#262521" d="M31.79,542.34c-.32.33-1.37.19-1.55-.13s-.1-1.3.16-1.55l2.74-2.7c.24-.24,1.31-.3,1.62-.14.39.2.23,1.28-.1,1.61l-2.87,2.9Z"></path><path fill="#262521" d="M17.89,563.47c1.35-1.52,1.59,4.3-.48,6.76-2.29-.45-.5-5.66.48-6.76Z"></path><path fill="#262521" d="M39.66,535.41c-.3.2-1.17.32-1.5.21-.42-.14-.37-1.43.02-1.69l2.92-2.03c.36-.25,1.63-.32,1.77.09s-.04,1.38-.42,1.62l-2.78,1.81Z"></path><path fill="#262521" d="M27.5,545.03c2.27-.69-2.42,7.03-3.33,5.09-.15-.31-.31-1.2-.11-1.46l2.29-3.03c.16-.21.9-.52,1.15-.6Z"></path><path fill="#262521" d="M47.5,530.65c-.29.12-1.28.11-1.39-.19-.79-2.12,6.3-4.24,5.57-2.19-.11.31-.66.92-1.01,1.07l-3.16,1.31Z"></path></g><g id="m-sketch" class="motif"><g id="PENCIL"><path fill="#262521" d="M200.91,508.26l7.04-19.73c.59-1.66.9-2.92,2.24-4.16,4.99-4.64,9.33-9.57,13.86-14.61l4.74-5.27,5.03-5.51,5.74-6.22,6.47-7.03,15.13-16.44,3.06-2.95c1-.96,2.51-3.51,4.19-3.24,3.47.56,11.99,10.09,15.25,13.23-1.94,2.51-3.72,4.65-5.74,6.84l-6.26,6.77-33.44,36.42-7.29,7.82c-2.12,2.27-4.05,4.44-6.07,6.89l-14.12,6.23-8.76,3.8c-.66.29-1.34-2.07-1.06-2.83ZM280.86,436.51c-2.43-2.61-4.47-4.69-6.85-6.76l-5.51-4.8-4.83,4.94,12.65,11.73,4.54-5.11ZM262.45,431.08l-51.39,55.6,5.74,5.3,51.39-55.6-5.74-5.3ZM269.29,437.55l-51.3,55.58,5.9,5.43,51.3-55.58-5.9-5.43ZM222.54,500.03l-4.62-4.81c-1.1-.13-2.03-.23-2.51-.57-.4-.28-.18-2.01-.59-2.39l-4.6-4.19-4.85,13.74,4.62,3.81,12.56-5.6Z"></path><rect fill="#8C9B6E" x="208.77" y="464.05" width="75.64" height="8.02" transform="translate(-264.68 332.09) rotate(-47.33)"></rect><rect fill="#8C9B6E" x="201.76" y="457.62" width="75.71" height="7.81" transform="translate(-262.03 324.53) rotate(-47.29)"></rect><path fill="#DCD1B9" d="M222.54,500.03l-12.56,5.6-4.62-3.81,4.85-13.74,4.6,4.19c.41.37.19,2.1.59,2.39.48.34,1.41.44,2.51.57l4.62,4.81Z"></path><path fill="#FBF8F0" d="M280.86,436.51l-4.54,5.11-12.65-11.73,4.83-4.94,5.51,4.8c2.38,2.07,4.42,4.15,6.85,6.76Z"></path></g><g id="PAPER"><path fill="#262521" d="M228.96,511.62c-.13-3.01-.95-11.97.82-13.41.19-.16.92.63.93.93l.39,8.73.44,16.34.36,6.51c.03.49-.31,1.66-.6,2.02-.34.43-1.42.48-2.23.53l-9.53.57-16.03.33-7.15.24c-7.12.24-14.02,0-21.14-.11l-26.52-.41-8.16-.28-32.37-.41-23.5-.07c-.67,0-1.48.03-1.91-.01-.52-.05-1.03-1.42-1.04-1.95l-.34-15.9-.32-13.62-.14-8.82-.2-12.18.19-35.44.32-10,.51-25.55c1.55-.28,3.5-.57,5.26-.72l8.14-.71,8.89-.75,30.19-1.39,21-.99,48.23-.13,5.61.63c5.26.59,10.34,1.07,15.41,2.27l.79.4c.24.12.08,1.39-.19,1.39-2.63-.06-7.34-.75-10.45-1.13-5.46-.67-10.31-.8-15.61-1.07-13.87-.72-21.73-.34-35.19-.09l-20.74.39-11.03.67c-3.77.23-7.27.41-11,.54l-16.01.55-9.03.7-12.45.92-.44,19.32.04,69.85.49,16.25.23,6.09c.11,2.81.07,5.25.61,8.14l46.92.22,35.4.57c14.63.24,28.91.3,43.51,0l18.97-.39c.06-5.02.09-9.99-.12-15.03l-.19-4.55Z"></path><path fill="#262521" d="M229.38,459.46c0,.55-.44,1.46-.69,1.71-.32.31-1.47-.55-1.48-1.07l-.23-21.99-.35-23.36c0-.32.46-1.17.77-1.21.39-.04.91.74.93,1.13l.36,7.57.49,11.63.21,25.59Z"></path><path fill="#8C9B6E" d="M140.73,513.51c.4,0,1.43.84,1.69,1s-.87,1.05-1.32,1.05l-40.43-.02c-.56,0-1.31-.15-1.34-.42l-.1-1.24c1.37-.14,3.39-.48,4.81-.48h17.95s4.02.1,4.02.1l7.48.07,7.24-.07Z"></path><rect fill="#8C9B6E" x="119.6" y="480.77" width="2.3" height="43.32" transform="translate(-381.8 622.67) rotate(-89.94)"></rect><rect fill="#8C9B6E" x="187.42" y="423.22" width="2.17" height="42.74" transform="translate(-256.21 632.79) rotate(-89.96)"></rect><rect fill="#8C9B6E" x="187.32" y="434.34" width="2.35" height="42.67" transform="translate(-269.23 639.14) rotate(-89.37)"></rect><rect fill="#8C9B6E" x="119.5" y="465.62" width="2.2" height="43.48" transform="translate(-366.87 607.48) rotate(-89.94)"></rect><rect fill="#8C9B6E" x="187.42" y="405.92" width="2.12" height="42.69" transform="translate(-239.83 613.36) rotate(-89.68)"></rect><rect fill="#8C9B6E" x="182.49" y="450.45" width="2.36" height="32.97" transform="translate(-283.33 650.46) rotate(-89.98)"></rect><path fill="#FBF8F0" d="M154.02,423.24c-.05-.13-.46.78-.47,1.09l-.34,21.72c-.01.79-.06,1.33-.12,1.74-.86-.81-.73-1.85-.71-3.15l.29-20.06-3.53-.59c.16.06.94-.49.69-.67l-.83-.58,3.88-.17c.28-.01,1.01-.27,1.06-.03.04.15.05.58.06.7Z"></path><path fill="#262521" d="M192.19,485.62l-5.4-.19-17.38-.11-12.15.29.02,7.92c-.02.31-.1,12.5-.09,12.75l.11,2.5c.02.56.02,1.44,0,2,0,.26,0,6,0,6l-.06,1.01-.07.97c-.02.21.91.38,1.33.38h33.74s-.06-33.52-.06-33.52ZM185.89,517.23l-1.18.04-19.84.09c-2.07,0-4.42.3-6.56-.08,0,0,.19-17.33.17-17.63-.05-.85-.17-2.48-.17-3.36l.07-9.28s.62-.17,1.03-.17h4.82c6.17,0,16.98-.21,22.6.31.23.02.68,0,.94,0h2.21c.34-.08.28.32.28.66l.06,28.84c-1.83.77-3.03.53-4.45.57Z"></path><polygon fill="#FBF8F0" points="142.1 474.76 141.55 475.72 116 475.72 115.45 474.76 142.1 474.76"></polygon><path fill="#FBF8F0" d="M154.63,448.32l-.11-18.08c.02-.2,1.01.38,1,.73v16.48c0,.33-.96,1.16-.89.86Z"></path><path fill="#262521" d="M154.52,430.24c-.01-2.25.2-4.97-.5-7-.05-.13-.46.78-.47,1.09l-.34,21.72c-.01.79-.06,1.33-.12,1.74-.02.24-.07.66-.07.88v10.14s-.05,2.82-.05,2.82l.04,11.28-17.62.14-25.75.06-5.59.09c-1.2.02-2.22-.1-4.02-.2l.08-4.57,17.03-21.2,10.68,13.32c.27.34,1.08.94,1.47,1.13.39.19.85-1.26,1.21-1.6l6.65-6.3,11.7,13.09c.22.25.74.95.98.85l1.15-.51c-1.24-3.07-4.01-5.45-6.35-8.07l-4.27-4.78c-.91-1.01-2-1.92-3.29-2.79-5.95,3.93-6.67,9.43-9.99,5.14l-8.09-10.47c-.35-.45-1.21-1.12-1.7-1.11-.49,0-1.48.63-1.79,1.02l-9.73,12.25-4.65,5.86c-.08.28-1.08.88-1.09.7v-.79s-.14-24.86-.14-24.86l.33-15.17c.08-.34,5.32-.38,5.32-.38h5.07s8.88-.06,8.88-.06c.39-.21,1.4-.32,2.04-.3l13.44.36h8.56s3.08.06,3.08.06c.77.01,1.82.08,2.56.2.16.06.94-.49.69-.67l-.83-.58-.92-.02c-.63-.02-1.52-.21-2.12-.38-.71.03-1.68.09-2.38.08l-14.51-.21h-4.14s-26.19-.2-26.15.24c.07.66.21,2.26.19,2.79l-.48,10.9v38.06s5.58-.02,5.58-.02l.04.44c1.99-.16,5.13.14,7.3.14h2.15s1.85,0,1.85,0h26.65s6.85-.11,6.85-.11c1.06-.02,2.72-.99,3.68.02.14.16,1.88-.23,1.88-.89l.12-25.46-.11-18.08Z"></path><path fill="#FBF8F0" d="M104.1,474.17l.04.44c.18.74-6.8,1.26-5.62-.42l5.57-.02Z"></path><path fill="#FBF8F0" d="M152.63,474.67c-.99.74-2.81.84-3.68-.02,1.06-.02,2.72-.99,3.68.02Z"></path><path fill="#DCD1B9" d="M119.48,423.68c.61,0,1.59-.13,2.04-.3l13.44.36c-.25-.04.46,1,.75,1l10.27.03.62-.98c.77.01,1.82.08,2.56.2l3.53.59-.29,20.06c-.02,1.3-.15,2.33.71,3.15-.02.24-.07.66-.07.88.03-.21-1,.43-1.01.75l-.04,8.77,1.03.63-.04,2.82c-.45.08-1.07.43-1.03.83.44,4.91.35,4.63-.1,9.76-.33-1.87-.31-3.65-.87-5.02-1.24-3.07-4.01-5.45-6.35-8.07l-4.27-4.78c-.91-1.01-2-1.92-3.29-2.79-5.95,3.93-6.67,9.43-9.99,5.14l-8.09-10.47c-.35-.45-1.21-1.12-1.7-1.11s-1.48.63-1.79,1.02l-9.73,12.25-4.65,5.86-1.09-.1-.14-24.86.09-14.13.24-1.04c.08-.34.89-.38,1.24-.38-.22-.06.47,1,.77,1l7.81.04.57-1.04,8.88-.06ZM140.12,442.77c3.56-1.65,4.48-5.82,2.21-9-1.76-2.46-5.29-2.54-7.53-.94s-3.03,4.92-1.59,7.55c1.23,2.24,4.43,3.54,6.91,2.39Z"></path><path fill="#FBF8F0" d="M150.99,467.2c.55,1.38.53,3.16.87,5.02.45-5.13.53-4.85.1-9.76-.04-.4.58-.75,1.03-.83l.04,11.28-17.62.14-25.75.06-5.59.09c-1.2.02-2.22-.1-4.02-.2l.08-4.57,17.03-21.2,10.68,13.32c.27.34,1.08.94,1.47,1.13s.85-1.26,1.21-1.6l6.65-6.3,11.7,13.09c.22.25.74.95.98.85l1.15-.51Z"></path><path fill="#FBF8F0" d="M101.11,464.24c-.08.28-.24.74-.33,1.01-.06.18-.76-.13-.76-.31v-.79s1.09.1,1.09.1Z"></path><path fill="#DCD1B9" d="M164.45,486.75l.63.97,20.77-.02c.4,0,1.36-.58,1.21-.63.23.02.68,0,.94,0,1.22,0,1.61-.07,2.48-.13l.42,30.33s-3.37-.17-4.79-.13l-.3-1c-.06-.19-.79.12-.81.31l-.07.72-19.84.09c-.22-1.52-3.83.41-4.54-.42l-1.51-1.76c-.11-.35-.31-.94-.36-1.26l.39-.04.96-.32c.22-.07-.46-.71-.51-.76v-6.5c.79-1.58.78-3.93,0-5.5-.02-.28-1.03-.15-1-.41v-4.08l.06-8c.19-.35.63-1.45,1.04-1.45h4.82ZM168.72,488.89l-2.74-.14c.03.38.8,1.66,1.15,1.39l1.59-1.25ZM189.49,515.92v-8.68c-3.85.27-4.34,4.32-5.38,7.6l5.38,1.08Z"></path><path fill="#FBF8F0" d="M187.05,487.07c.15.06-.81.63-1.21.63l-20.77.02-.63-.97c6.17,0,16.98-.21,22.6.31Z"></path><path fill="#FBF8F0" d="M165.08,517.27c-2.07,0-4.42.3-6.56-.08l.51-2.11,1.51,1.76c.71.83,4.32-1.1,4.54.42Z"></path><path fill="#FBF8F0" d="M186.1,517.14l-1.18.04.07-.72c.02-.2.75-.5.81-.31l.3,1Z"></path><path fill="#FBF8F0" d="M153.03,448.67v10.14s-1.04-.63-1.04-.63l.04-8.77c0-.31,1.04-.96,1.01-.75Z"></path><path fill="#FBF8F0" d="M143.52,423.74l3.08.05-.62.98-10.27-.03c-.29,0-1-1.04-.75-1h8.56Z"></path><path fill="#FBF8F0" d="M105.52,423.74h5.07s-.57,1.04-.57,1.04l-7.81-.04c-.31,0-1-1.05-.77-1h4.08Z"></path><path fill="#262521" d="M121.52,423.37c-.45.17-1.43.3-2.04.3.39-.21,1.4-.32,2.04-.3Z"></path><path fill="#FBF8F0" d="M159.52,506.19h-.5v-5.5h.5c.78,1.57.79,3.91,0,5.5Z"></path><path fill="#262521" d="M140.12,442.77c-2.48,1.15-5.69-.15-6.91-2.39-1.44-2.63-.73-5.89,1.59-7.55s5.77-1.52,7.53.94c2.27,3.18,1.35,7.35-2.21,9ZM141.87,437.38c0-2.14-1.73-3.87-3.87-3.87s-3.87,1.73-3.87,3.87,1.73,3.87,3.87,3.87,3.87-1.73,3.87-3.87Z"></path><path fill="#FBF8F0" d="M189.49,515.92l-5.38-1.08c1.04-3.28,1.53-7.33,5.37-7.6v8.68Z"></path><path fill="#FBF8F0" d="M159.07,513.77l.45-1.09c.05.05.73.69.51.76l-.96.32Z"></path><circle fill="#FBF8F0" cx="138" cy="437.38" r="3.87"></circle></g></g><g id="ARROW_2" class="arr"><path fill="#262521" d="M27.89,437.98l7.7,4.29-1.38-4.85c-.09-.31-.1-1.25-.09-1.51s.84-.1,1.32-.13l2.78,5.73,2.39-8.5c.14-.51,1.07-1.29,1.54-1.26.55.04.98,1.38.85,2l-2.71,13.15c-.46.48-1.99.4-2.87-.14l-11.08-6.89c-.35-.22-.42-1.7-.11-1.91.39-.27,1.23-.23,1.67.01Z"></path><path fill="#262521" d="M34.02,429.71c.1.41.14,1.29.06,1.65s-1.08.42-1.91.58l-.9-4.97c-.06-.32.02-1.23.3-1.26l1.45-.14,1.01,4.15Z"></path><path fill="#262521" d="M36.58,399.77c-.2.49-1.26.94-1.95.78-.59-1.18,1.18-5.19,2.19-5.78.28-.16,1.27,0,1.29.31s-.09,1.15-.23,1.5l-1.3,3.19Z"></path><path fill="#262521" d="M32.68,420.36c0,.21-.15.8-.34.82l-1.75.2.12-4.93c0-.4.33-1.13.52-1.42s1.41.37,1.41.72l.03,4.61Z"></path><path fill="#262521" d="M47.03,383.36c-.32.33-1.37.19-1.55-.13s-.1-1.3.16-1.55l2.74-2.7c.24-.24,1.31-.3,1.62-.14.39.2.23,1.28-.1,1.61l-2.87,2.9Z"></path><path fill="#262521" d="M33.14,404.48c1.35-1.52,1.59,4.3-.48,6.76-2.29-.45-.5-5.66.48-6.76Z"></path><path fill="#262521" d="M54.91,376.43c-.3.2-1.17.32-1.5.21-.42-.14-.37-1.43.02-1.69l2.92-2.03c.36-.25,1.63-.32,1.77.09s-.04,1.38-.42,1.62l-2.78,1.81Z"></path><path fill="#262521" d="M42.74,386.05c2.27-.69-2.42,7.03-3.33,5.09-.15-.31-.31-1.2-.11-1.46l2.29-3.03c.16-.21.9-.52,1.15-.6Z"></path><path fill="#262521" d="M62.74,371.67c-.29.12-1.28.11-1.39-.19-.79-2.12,6.3-4.24,5.57-2.19-.11.31-.66.92-1.01,1.07l-3.16,1.31Z"></path></g><g id="m-ideas" class="motif"><g id="GRAPH"><path fill="#8C9B6E" d="M165.01,267.29c-.55.37-.76.84-.99,1.48-.85,2.31-3.66,5.49-5.46,6.71-.39.27-.76,1.32-.54,1.74-10.83,6.42-17.43,6.41-28.39.36l-.39-1.61c-.09-.38-1.34.16-1.55.25-.88-1.6-1.98-3.2-3.1-4.9-3.68-5.6-4.37-12.56-2.37-18.81,3.08-9.64,11.34-16.39,21.44-16.27,5.68.06,10.61,1.94,14.83,5.74,7.15,6.44,8.93,16.25,6.53,25.3ZM163.62,259.14c0-11.02-8.93-19.94-19.96-19.94s-19.96,8.93-19.96,19.94,8.93,19.94,19.96,19.94,19.96-8.93,19.96-19.94Z"></path><path fill="#262521" d="M110.41,331.36c0-12.11-9.82-21.92-21.94-21.92s-21.94,9.81-21.94,21.92,9.82,21.92,21.94,21.92,21.94-9.81,21.94-21.92ZM107.68,331.37c0-10.6-8.6-19.2-19.21-19.2s-19.21,8.59-19.21,19.2,8.6,19.2,19.21,19.2,19.21-8.59,19.21-19.2Z"></path><path fill="#8C9B6E" d="M206.55,334.65c0-12.26-9.95-22.2-22.21-22.2s-22.21,9.94-22.21,22.2,9.95,22.2,22.21,22.2,22.21-9.94,22.21-22.2ZM203.89,334.63c0-10.79-8.75-19.53-19.54-19.53s-19.54,8.74-19.54,19.53,8.75,19.53,19.54,19.53,19.54-8.74,19.54-19.53Z"></path><path fill="#262521" d="M165.01,267.29l52.18,13.4c.83.21,1.51,1.27,1.22,1.84-.21.41-1.17.62-1.76.46l-46.59-12.3c-2.22-.59-4.12-1.19-6.03-1.92.24-.64.44-1.12.99-1.48Z"></path><path fill="#262521" d="M129.61,277.59c-2.15,2.43-4.07,4.96-6.14,7.76l-21.37,28.83c-.43-.34-.88-.67-1.34-.98.38-.91.74-1.98,1.17-2.55l21.29-28.61,4.46-5.82c.21-.09,1.46-.62,1.55-.25l.39,1.61Z"></path><path fill="#262521" d="M178.66,313.18c-.71.19-1.42.41-2.11.67-.07-.5-.26-1.53-.55-2.09l-8.11-15.62-9.88-18.92c-.22-.42.15-1.48.54-1.74.86.59,1.52,1.51,2.1,2.61l10.29,19.21c2.77,5.17,5.23,10.27,7.71,15.87Z"></path><path fill="#262521" d="M257.12,299.42c-.29.39-1.58.76-1.87.38-.47-.63-.43-1.57,0-2.09l2.81-3.47c.32-.39,1.31-.64,1.7-.39s.48,1.43.17,1.83l-2.81,3.74Z"></path><path fill="#262521" d="M228.75,267.02c-.25.15-1.4.08-1.64.08-2.56.07,4.86-5.91,6.56-4.18.27.28-.16,1.33-.51,1.54l-4.42,2.56Z"></path><path fill="#262521" d="M221.85,291.24c.1.39-.14,1.46-.34,1.73-.25.34-1.41-.17-1.54-.61l-1.51-4.9c-.15-.48.2-1.57.6-1.79s1.47.35,1.59.83l1.21,4.73Z"></path><path fill="#262521" d="M221.68,276.5c-.12.23-.68.73-.87.9-2.37,2.08.44-8.77,3.17-6.75.34.25.21,1.26,0,1.64l-2.3,4.21Z"></path><path fill="#262521" d="M262.71,288.56c-.02.37-1.08.85-1.46.82-.47-.03-1.07-.98-1-1.49l.68-4.79c.05-.32,1-.67,1.31-.57s.76.89.74,1.29l-.28,4.73Z"></path><path fill="#262521" d="M251.5,302.06c1.67,1.72-5.84,5.07-6.39,2.89-.1-.41.57-1.09,1.08-1.32l4.06-1.83c.3-.13,1.04.03,1.26.25Z"></path><path fill="#262521" d="M244.2,263.27l-5.07-.1c-.34,0-1.11-.74-1.1-1.08.05-2.43,8.94-.73,7.42.49-.19.15-.98.7-1.25.7Z"></path><path fill="#262521" d="M253.93,268.12l-3.82-2.77c-.29-.21-.5-1.32-.2-1.49s1.27-.42,1.55-.23l3.64,2.56c.26.18.54,1.06.64,1.36.13.38-1.48.82-1.81.58Z"></path><path fill="#262521" d="M239.98,306.47c-2.2.23-4.61-.37-6.45-1.18l.05-1.24c.01-.29,1.12-.51,1.42-.44l5.04,1.19c.38.09.3,1.64-.06,1.68Z"></path><path fill="#262521" d="M259.54,276.51l-1.53-3.41c-.13-.28-.19-.97-.19-1.25,0-.36,1.49-.58,1.71-.28.65.9,3.88,5.58,1.6,6.08-.57.12-1.29-.49-1.58-1.14Z"></path><path fill="#262521" d="M225.37,297.29c3.41,4.16,3.81,2.73,4.07,4.69.06.44-1.46.85-1.79.51l-4-4.05c-.22-.22.14-1.85.45-1.81.39.06,1.01.33,1.27.65Z"></path><ellipse fill="#8C9B6E" cx="143.67" cy="259.14" rx="19.96" ry="19.94"></ellipse><ellipse fill="#3A5E86" cx="88.47" cy="331.37" rx="19.21" ry="19.2"></ellipse><ellipse fill="#FBF8F0" cx="184.34" cy="334.63" rx="19.54" ry="19.53"></ellipse></g></g><g id="ARROW_1" class="arr"><path fill="#262521" d="M112.28,211.59l7.7,4.29-1.38-4.85c-.09-.31-.1-1.25-.09-1.51s.84-.1,1.32-.13l2.78,5.73,2.39-8.5c.14-.51,1.07-1.29,1.54-1.26.55.04.98,1.38.85,2l-2.71,13.15c-.46.48-1.99.4-2.87-.14l-11.08-6.89c-.35-.22-.42-1.7-.11-1.91.39-.27,1.23-.23,1.67.01Z"></path><path fill="#262521" d="M118.42,203.33c.1.41.14,1.29.06,1.65s-1.08.42-1.91.58l-.9-4.97c-.06-.32.02-1.23.3-1.26l1.45-.14,1.01,4.15Z"></path><path fill="#262521" d="M120.97,173.39c-.2.49-1.26.94-1.95.78-.59-1.18,1.18-5.19,2.19-5.78.28-.16,1.27,0,1.29.31s-.09,1.15-.23,1.5l-1.3,3.19Z"></path><path fill="#262521" d="M117.08,193.98c0,.21-.15.8-.34.82l-1.75.2.12-4.93c0-.4.33-1.13.52-1.42s1.41.37,1.41.72l.03,4.61Z"></path><path fill="#262521" d="M131.43,156.98c-.32.33-1.37.19-1.55-.13s-.1-1.3.16-1.55l2.74-2.7c.24-.24,1.31-.3,1.62-.14.39.2.23,1.28-.1,1.61l-2.87,2.9Z"></path><path fill="#262521" d="M117.53,178.1c1.35-1.52,1.59,4.3-.48,6.76-2.29-.45-.5-5.66.48-6.76Z"></path><path fill="#262521" d="M139.3,150.04c-.3.2-1.17.32-1.5.21-.42-.14-.37-1.43.02-1.69l2.92-2.03c.36-.25,1.63-.32,1.77.09s-.04,1.38-.42,1.62l-2.78,1.81Z"></path><path fill="#262521" d="M127.13,159.67c2.27-.69-2.42,7.03-3.33,5.09-.15-.31-.31-1.2-.11-1.46l2.29-3.03c.16-.21.9-.52,1.15-.6Z"></path><path fill="#262521" d="M147.13,145.29c-.29.12-1.28.11-1.39-.19-.79-2.12,6.3-4.24,5.57-2.19-.11.31-.66.92-1.01,1.07l-3.16,1.31Z"></path></g><g id="m-conv" class="motif"><g id="BOTTOM_BALLOON"><path fill="#262521" d="M250.07,75.66h0c9.57,1.17,17,5.28,24.67,11.67,7.94,6.61,12.73,16.32,14.4,26.39,2.99,18.05-5.72,36.82-22.2,45.07-.75,7.61,1.93,17.53,5.83,23.62.3.46.2,2.08-.28,2.16s-1.34-.03-2.05-.22c-11.68-3.22-21.2-6.9-28.44-16.94-9.48,1.1-18.68,1.99-28.24,1.05-12.6-1.23-25.23-5.33-35.12-13-13.41-10.41-17.33-28.7-12.17-44.1.34-.56,2.64-.19,2.46.45-5.19,18.37-.16,35.49,16.64,45.2,18.91,10.43,36.78,10.21,57.69,7.53,5.68,8.62,14.88,14.51,25.11,15.97-3.01-8.25-4.76-15.52-4.21-23.56,5.32-1.96,9.44-5.38,13.35-9.62,8.49-10.27,11.18-23.85,8.14-36.89-3.86-16.57-17.78-28.37-33.98-31.69-1.95-.4-1.15-1.36-1.63-3.08Z"></path><path fill="#262521" d="M236.54,120.12l-25.83.43c-3.28.05-7.8.29-10.81.22-.4,0-1.49-1.31-1.18-1.56s1.25-.8,1.67-.82l14.58-.69,25.27-.82c2.57-.08,18.82-1.05,18.95.98.12,1.78-5.01,1.75-6.6,1.74-5.51-.05-10.59.44-16.03.53Z"></path><path fill="#262521" d="M200.25,134.7c-.52,0-1.4-.38-1.64-.63-.3-.31.61-1.41,1.11-1.45l8.13-.65c1.55-.12,3.11-.22,4.63-.23,5.78-.02,11.07-.35,16.86-.45l27.16-.47c.63-.01,1.59.96,1.77,1.39s-1,1.4-1.54,1.41l-23.87.48-15.46.45-17.16.14Z"></path></g><g id="TOP_BALLOON"><path fill="#8C9B6E" d="M248.19,75.33c-.21.59-.43,1.17-.67,1.73-.8,1.9-1.86,3.66-2.94,5.41-16.9,27.46-55.63,33.77-84.55,24.94-10.1,9.32-17.21,11.51-30.07,15.11-1.05.29-2.07.43-2.97-.27,4.78-9.51,7.38-17.16,7.25-27.95-14.89-11.66-22.6-27.06-20.06-46.12,3.46-25.98,22.97-42.92,48.41-47.09,15.27-2.5,30.35-.59,44.9,4.49,11.3,3.95,21.24,9.74,29.61,18.33,2.94,3.02,5.16,6.5,7.33,10.21,6.57,11.23,8.22,24.7,4.96,37.22-.35,1.33-.74,2.67-1.2,3.98Z"></path><path fill="#262521" d="M162.74,60.72c-1.01.82-3.81.64-5.08.03-2.1-1-2.78-3.42-2.69-5.52.08-1.96,1.17-4.06,3.25-4.86,3.06-1.18,5.46.32,6.81,2.86,1.26,2.37.34,5.37-2.28,7.49Z"></path><path fill="#262521" d="M186.66,52.52c1.25,2.61,1.24,7.05-2.46,8.32-1.07.37-3.02.45-3.89.17-2.18-.69-3.37-3-3.48-4.83-.14-2.21.9-4.19,2.71-5.3,2.51-1.54,5.21-.43,7.13,1.64Z"></path><path fill="#262521" d="M203.3,61.23c-3.25-.18-5.13-3.21-4.89-5.99s2.53-5.21,5.57-5.04,4.92,2.81,4.88,5.52c-.03,2.9-2.1,5.7-5.56,5.51Z"></path></g></g></svg>