<?xml version="1.0" encoding="UTF-8"?><svg id="Layer_2" xmlns="http://www.w3.org/2000/svg" viewBox="0 0 485 348.77"><defs><style>.cls-1{fill:#3a95a4;}.cls-2{fill:#fffbee;}</style></defs><g id="Layer_1-2"><path class="cls-2" d="M283.71,160.86l-12.63-33.27-63.04.22-12.35,33.04-33.08-.17L223.88,2.77l31.71.09,30.49,78.08,30.73,79.65-33.1.27ZM261,98.33l-21.51-58.6-20.76,58.82,42.27-.22Z"/><path class="cls-2" d="M117.88,147.31c-23.38,25.04-75.72,19.04-100.5-3.64l11.8-28.41c12.99,11.29,27.77,18.3,44.77,18.31,11.05.01,23.73-3.91,24.04-15.73.33-12.65-13.86-16.79-24.83-19.87-9.27-2.6-18.21-5.19-26.95-8.86-16.6-6.96-26.02-21.91-25.77-39.78.29-20.56,11.48-38.2,31.41-45.08C75.91-4.06,103.36-.08,124.03,15.22l-10.55,28.46c-12.31-9.53-25.69-14.59-40.48-13.76-6.28.62-12.37,2.25-16.7,6.67-3.64,3.71-4.98,8.57-4.03,13.85,4.16,23.1,75.32,8.52,77.36,60.91.51,13.11-2.57,26.13-11.75,35.96Z"/><polygon class="cls-2" points="396.71 160.68 366.44 160.75 366.28 32.36 324.22 32.14 324.25 2.66 438.77 2.77 438.75 32.27 396.79 32.38 396.71 160.68"/><path class="cls-2" d="M348.4,146.89c.65,9.02-5.22,15.15-12.97,15.18-8.17.03-13.97-6.26-13.44-14.83.44-7.22,5.77-12.62,12.5-13,7.2-.4,13.34,4.69,13.91,12.65Z"/><path class="cls-2" d="M157.17,147.79c.14,8.82-5.81,14.48-13.58,14.35-7.28-.12-12.86-5.94-12.93-13.8s5.04-13.53,11.93-14.12c7.79-.66,14.45,4.9,14.59,13.57Z"/><path class="cls-1" d="M450.96,200.2c.88,6.3-7.87,39.65-7.93,49.45,5.45,1.07,21.35,8.97,22.87-.47.69-4.31-5.02-6.91-9.83-5.75,1.54-3.84,5.16-4.47,8.61-4.77,8.27-.71,14.88,4.72,15.67,13.47.89,9.88-7.49,17.39-17.55,18.26-7.09.61-13.63-2.1-20.42-4.55-22.58-8.14-45.02,1.29-65.82,10.2-6.87,11.67-12.2,23.42-15.1,36.62-5.6,3.18-11.95,3.9-17.74,2.03-4.4-1.42-6.41-4.75-6.04-9.4s3.08-8.28,4.17-13.23c-14.71,10.67-30.24,18.99-47.85,22.32-12.18,2.3-26.35,1.91-36-6.27-12.79-10.84-7.9-27.46-3.19-41.55,6.05-18.11,14.48-34.84,24.33-51.53-5.27.05-9.43,3.34-14.61,5.16-2.91-18.08,21.53-28.79,32.1-26.34l17.53,4.06c11.65,2.7,43.45.6,52.02-11.27,2.58,4.67,1.45,9.66-.12,14.93-2.64,8.85-12.49,13.64-21.6,13.08-12.76-.77-24.02-2.77-36.2-2.27-6.54,9.48-11.59,19.34-16.74,30.22,15.79-2.78,27.52,2.57,41.52-1.93,2-.64,3.43-2.8,5.77-2.12,1.59,12.2-8.71,22.73-21.16,21.9l-14.8-.99c-5.29-.35-10.72-1.88-16-.44-3.88,1.05-7.17,15.86-8.24,19.59-1.2,4.18-1.24,7.93,1.03,11.53,4.17,6.61,16.45,4.31,23.48,2.54,16.18-4.07,30.29-11.81,44.61-20.03,5.74-3.29,9.77-6.39,12.77-12.75,2.46-5.21,6.45-10.07,9.83-14.97,11.97-17.34,29.54-41.6,47.68-52.09,10.69-6.18,31.45-3.42,32.96,7.38ZM417.24,247.88c2.09-15.29,5.06-24.11,7.97-38.98-12.96,9.54-27.36,29.48-36.51,45.33,9.6-2.59,18.43-5.92,28.54-6.35Z"/><path class="cls-1" d="M185.68,322.94c-16.04,2.2-42.41-4.98-48.68-23.11-1.2-3.48-2.39-7.84-2.02-11.33,1.72-16.13,15.24-32.28,32.67-29.29-9.5,3.05-18.12,9.64-18.08,20.53,4.64-9.94,13.78-15.72,24.92-14.82,4.73.38,9.64,3.28,12,7.28,1.8,3.05,2.13,6.43.71,9.28-2.46-3.33-6.12-4.26-9.47-4.07-2.67.15-5.7,1.64-7.55,5.08-3.67,6.8.2,15.07,7.17,18.25,8.93,4.07,18.45,2.67,26.81-2.88,5.34-3.54,9.01-10.63,8.06-17.39-1.86-13.24-21.89-19.94-33.89-32.55-7.27-7.64-8.07-18.76-4.29-28.63,6.54-17.07,28.78-29.25,46.77-29.13,10.03.06,13.28-.99,22.23,3.38s13.53,13.36,11.33,23.12c-1.95,8.65-9.75,15.59-19.52,15.32-3.67-.1-7.37-.09-9.47-3.34l4.11-7.36c1.88-3.36,2.1-9.88-1.93-12.25-7.01-4.11-16.12-1.8-22.31,2.91-4,3.04-6.19,7.97-5.89,12.55.33,4.98,2.62,9.54,7.09,12.58l21.56,14.7c9.45,6.45,16.14,16.5,14.96,27.98-2.14,20.97-19.78,33.71-38.23,39.36-6.41,1.96-12.43,2.92-19.02,3.83Z"/><path class="cls-2" d="M129.57,331.04c-24.81-15.42-39.14-3.41-61.57.56-12.69,2.25-11.43,2.66-25.58,1.91-12.18-.64-33.35-6.94-42.42-15.92,19.67,7.63,42.6,11.01,62.84,4.15l29.65-10.06c6.15-2.08,12.42-2.04,18.98-1.79,21.78.84,35.28,21.9,66.45,24.23,17.99,1.35,36.29-2.53,51.33-12.61,2.61-1.75,4.64-4.23,7.68-4.93-16.83,20.55-41.75,31.28-67.14,28.82-14.79-1.43-27.82-6.65-40.21-14.36Z"/><path class="cls-2" d="M423.73,332.89c-19.97-4.75-28.52-15.87-45.24-6.46-15.74,8.86-31.26,14.91-46.38-.62,6.93,1.72,13.28,4.36,20.41,2.49,20.86-5.49,26.54-29.52,59.51-13.83,8.53,4.06,16.99,8.06,26.49,8.84,20.9,1.73,28.68-1.87,46.48-11.65-13.74,18.61-38.62,26.61-61.27,21.22Z"/><path class="cls-1" d="M441.75,311.89c-11.41,2.02-21.4-4.33-24.66-15.61-2.27-7.87-2.53-16.15-2.04-24.53-5.18-.77-9.54.54-14.74.61,12.9-6.28,27.39-6.51,40.74-.52-.15,12.49,1.35,29.18,17.02,30.55-4,6.17-9.98,8.38-16.32,9.5Z"/><path class="cls-2" d="M206.92,347.8c8.24-2.52,15.04-5.77,21.84-10.48l13.92-11.09c16.44-7.04,24.25-.16,35.21,2.37,18.2,4.2,29.2-1.24,44.21-10.85-.06,3.16-2.75,4.81-4.81,7.07-13.63,14.98-34.34,18.43-52.93,12.15s-22.68,5.01-38.48,9.44c-6.19,1.69-12.14,3.52-18.97,1.39Z"/><path class="cls-1" d="M40.27,295.74c-1.45-2.66.34-5.82-.88-8.7-6.93,9.95-17.62,19.91-29.98,13.72-11.44-5.73-8.88-22.36-4.4-31.95,2.9-6.22,6.34-11.61,10.71-16.95,8.42-10.3,28.96-23.77,41.7-13.07,3.03-1.21,5.93-2.5,9.64-.8,2.39,1.1,5.61,3,6.13,7.15.34,2.75-1.59,6.19-3.58,7.98-2.84,2.57-2.78,5.37-3.93,8.58-2.13,5.97-11.37,24.43-6.23,26.11.99.32,2.91.47,4.22-.83,17.68-17.65,18.65-25.64,28.34-48.91-4.38.04-6.6,1.43-9.45-.81-2.6-2.04-3.62-9.06-.02-10.55,3.97-1.03,11.18,1.45,14.99-1.53,5.3-7.37,7.01-16.57,11.12-24.59,2.33-4.56,13.98-3.07,16.8,3.11,3,6.57-2.8,11.21-4.85,18.62,6.09,2.12,12.69-2.83,16.71,4.02,1.21,2.06,1.3,8.16-2.06,8.33-6.82.34-14.07-1.42-20.99,1.13-2.77,4.09-24.34,50.69-17.52,52.2,9.22,2.03,22.89-18.94,28.51-26.2,2.76,1.97,3.69,6.53,2.1,9.65-6.33,12.38-20.67,29.53-35.93,31.11-4.54.47-9.34-1.35-12.52-4.32-3.65-3.41-1.66-12.5-6.28-7.46-3.98,4.34-8.06,8.28-13.45,10.53-6.75,2.81-15.1,1.44-18.91-5.55ZM52.15,248.47c-3.38-2.66-7.35-1.24-10.57,1.16-10.81,8.06-18.58,20.62-20.99,33.99-.31,1.73.35,3.48,1.02,4.19,7.17,7.66,28.66-33,30.54-39.34Z"/></g></svg>