<?xml version="1.0" encoding="UTF-8"?><svg id="Layer_2" xmlns="http://www.w3.org/2000/svg" viewBox="0 0 334.07 368.56"><defs><style>.cls-1{fill:#1a529f;}</style></defs><g id="Layer_1-2"><path class="cls-1" d="M171.18,23.76c-13.15-6.2-22.77-3.75-34.91-4.18-6.18-.22-12.6,2.18-18.61,3.71-10.08,2.56-18.46,6.97-26.16,13.9-4.96,4.46-11.01,9.15-12.05,16.31-3.74,25.71-21.41,31.8-25.83,42.26-1.53,3.63-.5,10.03-1.56,13.43-3.94,4.32-4.02,8.62-4.63,13.77-1.4,11.75,2.36,21.02,6.96,31.16,2.99,6.6,4.7,13.13,9.14,19.08,3.44,4.61,6.5,8.94,10.86,13.06,8.64,8.17,18.46,16.47,29.94,20.35l19.71,6.66c2.78.94,8.55.26,11.72.67l9.38,1.22c1.73.22,4.58,1.87,4.87,3.31,1.64,8.16-13.06,6.99-18.59,6.06l-10.28-1.72c-11.37-1.9-21.21-6.39-31.32-11.85-3.65-1.97-8.26-3.21-11.12-5.95-7.04-6.74-13.92-12.57-20.51-19.55-2.34-2.48-5.36-5.34-7.51-7.38-1.91-1.81-2.71-7.06-4.64-9.6-3.71-4.89-4.16-10.04-5.75-15.41-3.52-11.88-8.92-23.15-8.45-35.93l.31-8.3c.56-15.05,6.1-28.95,12.07-42.8l4.39-10.17c1.85-4.29,7.74-7.37,9.17-12.11l2.57-8.58c.29-.98,1.01-2.78,1.43-3.73,1.02-2.27,5.32,4.33,6.44,1.23l3.78-10.47c1.14-1.35,5.33.37,6.97,1.95l19.53-12.24c2.36-1.48,8.31-1.31,10-3.39l2.72-3.34c3.36,1.24,5.63,1.18,8.44.76,4.91-.73,10.07-.26,12.4-5.96,2.23,4.31,4.42,4.43,8.06,4.1,8.19-.74,30.32,2.59,38.3,6.17l4.73-1.71c6-2.17,3.9,11.58,17.49,10.24,13.16,8.48,6.71,9.42,19.44,16.73l3.24,4.47c2.56-.06,5.62.45,6.87,1.89,4.25,4.87,1.28,9.42,2.16,9.81l2.02.9c1.63,13.15,16.78,7.69,7.42,16.02l3.1,2.21c-3.16,4.62,1.25,7.77,2.02,11.6l2.21,11.03,4.41,21.81c.9,4.44.04,10.07.41,14.83,1.98,25.11-.98,14.26-4.52,26.57-1.13,3.94-1.1,9.7-3.29,12.7l-6.11,8.36c-.66.9-1.62,1.96-2.23,2.51-.76.69-3.93-.44-4.25-1.64-1.23-4.65.71-11.42,2.64-16.44,1.51-3.92,6.4-21.42,4.86-22.9-.8-.77-2.76-1.78-4.01-2.56-3-16.92,8.74-19.05-.06-39.9.83-1.37,1.2-4.18.43-5.77-.57-1.17-2.71-1.26-4.71-1.65-.42-1.61-1.53-5.71-1.62-7.48.59-4.18-2.07-7.68-4.15-11.05-2.22-3.6-2.53-7.95-5.9-11.33s-5.22-8.79-10.59-9.09c-11.52-.63-.91-6.22-13.36-13.91-9.13-5.64-12.4-10.31-23.15-9.39-.86.07-1.77-2.92-2.72-3.37ZM157.83,12.24l9.98,1.71-7.6-4.7c-4.05.85-7.25.75-10.92.03l-11.53-2.26c1.8,2.25,2.88,4.44,3.12,6.56,1.46-.75,4.43-1.02,6.81-.81l12.95,1.12c-.99-.58-3.01-1.77-2.81-1.65Z"/><path d="M162.54,133.94c0,.65,1.48,2.38,2.39,2.69l34.92,11.66-7.71-38.4-4.78,2.2c.42-1.81,1.54-3.21,3.19-5.14,1.09-1.27-.07-5.07-1.13-6.76-6.56,1.37-12.16,2.58-18.21,4.5,4.46,2.02,16.74-5.24,17.56.59l-19.15,16.83c-3.73,3.28-6.08,8.05-12.34,8.78l26.87-24.85-67.35,12.68c11.39,5.2,21.47,8.67,32.42,12.74,2.53.94,4.23,1.07,7.95,1.08.22-.36-1.08,1.73-1.52,2.44-.53.85-3.07.37-4.13-.03l-39.66-14.98-.02-3.51-3.96.76c-.98.19-.67,4.12.53,4.54l43.65,15.29c-6.11,6.58-11.89,10.93-18.69,15.67,3.04-7.25,10.23-8.89,14.32-14.51l-16.8-6.33-23.15-7.34,7.99,40.46c6.51-2.64,9.5-10.25,17.13-11.57.89,1.16-22.46,17.19-15.79,16.65.62-.05,1.87-.47,2.47-.99l12.53-10.79,22.22-19.54c.35-.31,2.33-.6,2.54-.32l.83,1.09c.32.42-1.86.85-2.42,1.34l-37.15,32.24c0,4.42,1.34,8.84,1.71,13.36.62,7.69.78,15.27-.26,23.76-8.08-12.38-9.49-25.69-12.23-39.14l-19.4-95.06c-.31-1.51,2.31-3.6,3.48-3.79s4.16.06,4.62,1.3l4.14,11.18,11.67-2.24-3.9-8.24c-.22-.47,1.81-1.73,2.1-1.28,4.14,6.56,3.06,7.13,7.82,9.69-.17.36-.32,2.38.09,2.5l18.85-4,31.76-6.3c-2.42,3.11-1.16,10.31-2.37,7.86l-1.09-2.2-1.19-2.41c-.35-.72-2.95,1.25-2.59,2.35l7.58,22.95c3.79-7.6-3.51-12.44-1.62-19.77l3.73,11.56c.78-7.51,1.18-13.96.17-21.78-16.37,2.51-35.65,8.13-52.06,9.03,14.57-5.06,28.98-5.96,43.48-9.2l9.49-2.12,1.09-34.46c.06-1.93,2.9-3.07,5.47-5.1l-65.07,11.4-9.21,1.55c-4.73.8-8.19,1.2-13.45,2.81l7.38,1.64,11.16,21.44c.25.48-1.19,2.32-1.48,2.05-.41-.38-1.86-1.56-2.21-2.24l-9.73-18.65-6.68-.54c-1.77-.14-3.57-5.96-1.55-6.33l91.59-16.74c1.99,1.27,3.11,4.39,3.07,7.07l-5.94,1.8-1.18,33.22c3.37-.32,6.16-.76,8.29-1.28-.79-5.12-1.24-7.63-1.58-11.73-.22-2.68,6.56-3.75,7.63-1.44,3.78,8.13,4.99,16.26,6.67,24.74l6.28,31.83,5.25,26.79,4.58,23.67c.89,4.58,1.88,8.97,1.73,13.61l-.5,15.71c-4.33-4.38-4.97-8.28-6.15-14.14l4.39,3.88-.23-8.4c-1.5-.28-2.57.93-5.34,3.5l-4.37-18.4c-3.01-1.43-6.44-3.31-9.69-4.47l-26.34-9.36c-2.8-.99-6.12-1.57-7.02-4.83,16.59,4.7,26.5,10.25,41.54,14.88.44-1.69-.57-3.53-2.63-4.24l-36.42-12.62c-.89-.31-1.84-1.87-2.11-2.37-.36-.67,2.63-.99,3.24-1.44ZM188.75,60.2c-.35-1.7-.92-3.38-1.76-3.45-.63-.05-2.55.45-2.5,1.08l.24,3.32c.05.75.73,2.25,1.27,2.78s3.55.18,3.4-.56l-.65-3.17ZM174.56,100.77l15.29-2.92-5.09-24.28-9.75,2.31-.45,24.9ZM94.02,74.16l-4.05,1.08,1.91,7.2,4.05-1.08-1.91-7.2ZM153.13,104.05c-.87-3.71-3.18-6.94-1.72-10.68l3.11,11.93,12-2.77-7.33-23.91-9.81,2.16,1.77,12.45-3.82-11.17c-.19-.57-2.47-.69-2.6-.11-.09.39-.3,2-.15,2.52l5,18.24c.21.76,1.04,1.87,1.43,2.25.26.25,1.43-.5,2.13-.92ZM148.96,106.09l-6.32-23.89-13.41,2.74,5.63,24.25,14.09-3.1ZM126.76,103.64l-.23-7.37,4.13,12.01c.17.49,2.39.87,2.33.36-.04-.34-.11-1.31-.22-1.83l-4.22-19.53c-.18-.82-1.99-2.35-2.53-1.97-.41.29-1.32,1.25-1.23,1.75l1.22,6.87c-1.64-2.41-2.08-4.15-3.12-7.83l-4.67,1.46,8.53,16.07ZM126.47,111.03c-1.83-4.08-2.85-6.5-4.44-9.45l-7.32-13.58-13.68,2.78,4.63,24.29,20.8-4.04ZM100.14,111.59c-.66-8.05-1.34-13.56-4.15-19.06.85,7.26,2.33,13.34,4.15,19.06ZM164.91,106.91l3.19-.57c.34-.06-.09-1.03-.3-1.49-8.31,1.79-15.16,2.44-22.88,5.65l19.99-3.59ZM203.23,140.53c-.59-9.9-2.29-17.05-4.62-24.59.59,8.9,2.67,16.98,4.62,24.59ZM109.91,155.95c-1.32-7.76-3.22-15.42-5.49-22.63,3.02,19.1,6.42,36.3,10.97,54.44-.72-10.96-3.63-20.96-5.48-31.81ZM209.19,169.9l-.12-8c-.03-1.74-.88-3.83-1.37-5.68l-3.82-14.32c-.38,3.5,1.01,6.13,1.31,9.65l.68,7.9,3.33,10.44Z"/><path d="M187.36,112.09c-8.11,7.95-16.1,15.51-24.82,21.85.34-2.38,1.48-3.52,3-4.86l16.07-14.11c1.62-1.42,3.85-2.47,5.75-2.87Z"/><path d="M222.77,313.01l9.12,15.18c.61-1.62.72-3.51,1.51-3.76l4.29-1.36-5.76-30.62-5.65-.13c-1.12-.03-1.23-4.8-.12-5.04l18.37-3.83c1.18,1.95,1.71,4.89,1.65,6.65l-5.37-.82,5.59,27.5c.2.96-.74,2.93-1.21,4.02l6.58-.44c1.74,1.31,7.44,1.31,8.11-1l-6.3-29.8-5.23-.05c-1.32-.01-2.27-4.22-1.28-5.15l17.22-3.58c6.14,5.84,9.82,12.03,14.66,16.75l6.39,6.23c-.05-1.82-.75-3.74-.18-4.05l2.29-1.24-2.69-1.15c-.66-.28-1.33-2.1-.67-2.37l3.35-1.36-3.91-1.21c-1.02-.31-.41-3.79-2.38-8.4-.44-1.03-3.35-.2-5.18.14-1.4.25-2.06-4.82-.71-5.34,2.69-1.03,7.6-2.02,10.25-2.28,2.73,2.83,4.56,3.26,9.24,4.04l-5.33,1.36,6.58,37.6c-3.53.61-7.09.87-10.34.68l-22.21-24.63,3.56,22.18,4.7,1.36c.85.25,2.3,1.12,2.94,1.69s-.28,3.27-1.17,3.47l-14.01,3.01c-1.39.3-4.77-1.37-6.1-1.28l-19.04,4.25-.43,2.31c-.11.6-1.83,1.43-2.58,1.51l-7.69.85-9.76-15.63c-.35-.56-1.53-1.38-1.85-1.62-.47-.35-2.34,1-2.21,1.75l2.89,17.54-10.54,2.43-9.07-47.88c1.39-1.44,24.01-6.54,21-3.2l-1.72,1.91,6.12-1.25c8.8,4.21,11.73,15.41,4.28,24.05ZM216.88,302.46l-1.6-5.52c-3.02-.96-7.35-1.24-10.38.58l2.62,12.31c2.26.56,6-.09,7.48-1.45,1.16-1.07,2.34-4.36,1.89-5.91Z"/><path d="M158.18,237.58l9.78-.25,3.97,17.78c2.14.21,6.16-.32,7.56-1.54.49-.43,1.34-2.72,1.39-3.36.07-.81-1.05-1.52-2.06-2.53l-2.52-12.42,9.93-1.4,2.68,8.29.62-3.29c.17-.88,2.14-1.15,3.34-1.35l20.12-3.3c.54,1.39,1.47,5.02.58,5.88-1.04,1.01-3.24,1.64-5.98,2.65,1.03,9.22,2.55,19.13,6.62,27.81,1.22,2.59,5.83,3.35,8.07,2.82s6.97-2.48,6.87-5.54c-.3-9.31-2.14-17.93-4.35-27.13l-7.48-1.13-.79-6.06,17.15-2.57c1.05-.16,3.82.28,4.32,1.19.6,1.1.71,4.23-.45,4.68l-3.66,1.42c-.79.3-.66,3.01-.48,3.9,1.86,8.88,3.36,17.97,3.07,26.77-.18,5.54-3.99,7.09-7.56,9.47-5.44,3.63-11.41,4.17-17.99,1.14-4.19-1.93-8.52-7.17-9.56-13.33l-3.82-22.6-8.77-.37,8.38,40.41-11.12,2.1-4.49-22.24-7.52,1.21,4.14,21.89-10.62,2.03-9.4-51.03Z"/><path d="M113.53,362.07c-17.96,1.14-18.61-18.28-20.92-31.23-.62-3.51-.58-5.91-.01-10.16l-6.5-.33-.07,3.67-2.28-2.91c-.5-.63,1.37-2.45,2.15-2.61l19.91-3.91.6,6.36-5.68,2.04c1.07,9.29,2.75,18.7,6.27,27.7,1.38,3.52,5.71,4.09,8.65,3.02,3.32-1.21,5.44-4.52,4.88-8.79-1.03-7.91-2.63-17.21-5.01-24.42-2.01-.51-5.66-.31-6.32-1.55s-.49-4.77.33-5.52l18.51-2.64.09-4.18,28.15-4.79c.97,1.72,1.33,4.85.55,6.06-1,1.55-3.85,2.31-6,2.69l-2.96.52c-.75.13.28,2.35.48,3.19l8.35,36.19c-3.03,1.31-6.14,1.99-9.84,2.2l-7.52-31.64-1.9-7.99-9.14,1.54c-.06,4.71-5.65,1.28-4.41,7.2,1.72,8.26,2.98,15.97,3.67,24.22.75,8.89-5.37,15.52-14.02,16.07Z"/><path d="M90.38,280.45c1.69,7.98,2.74,16.4-3.79,22.56-3.63,3.42-10.19,3.89-14.89,1.7-11.4-5.32-9.13-21.89-10.87-33.06l-6.35-1.3-1.06-3.75c-.21-.74-2.76-.47-3.48-.24l-3.41,1.08c-.71.22,1.44,2.61,1.6,3.47l6.04,33.24c-3.64,2.14-7.25,2.68-11.08,2.44-2.71-9.97-1.38-11.43-3.02-19.85l-3.54-18.11-8.6.5.6-6.93,25.29-3.51,1.77,7,9.23-.84c2.5-.23,6.34-1.36,8.65-1.34.36,1.65,1.23,5.14.22,5.52l-5.1,1.92,3.06,20.8c.4,2.74,2.43,6.21,4.7,6.86,2.55.73,5.54-.33,7.74-2.42,2.04-1.94,1.45-4.1,1.05-7.82-.62-5.78-1.27-14.28-3.14-19.15l-4.74-.81c-1.03-.18-1.03-2.56-.97-3.9.05-1.04,2.2-2.03,3.49-2.14l12.9-1.15c.9.55,1.61,4.53.58,5.37-.73.59-3.15.9-3.2,1.68l-.26,3.82c-.06.83.3,2.96-.26,3.28l-3.47,1.96c-.71.62,1.97,2.19,4.32,3.13Z"/><path d="M6.92,314.73l-3.07-19.92c-.09-1.49,4.99-2.1,5.41-.64.92,3.2,2.98,7.01,5.27,8.3,3.21,1.79,7.88,1.82,10.39-.56.91-.87,1.56-3.92,1.22-5.02-1.39-4.49-12.08-1.37-19.08-5.57-7.77-4.66-9.24-16.53-3.83-23.06,4.46-5.37,11.49-6.72,16.47-3.6l1.51-3.61c.44-1.04,4.43-.15,4.62,1.09l2.18,14.45c.14.91.09,2.41,0,3.05s-1.98,1.06-2.98,1.48c8.85,2.34,13.79,16.37,7.54,25.18-4.3,6.05-11.96,5.88-18.76,5.84-1.52,1.03-4.25,2.51-6.88,2.58ZM23.11,281.02c-.57-5.76-5.7-11.04-12.21-9.18-2.21.63-3.26,6.53-.76,7.56,3.76,1.56,8.07,1.55,12.97,1.62Z"/><path d="M313.36,298.95l-.73-6.99,16.43-2.89,1.69,7.94,3.32,14.9c.24,1.07-3.11,3.07-4.04,2.64l-4.69-2.19c-4.38,3.15-9.45,7.21-15.66,5.28-10.36-3.23-13.81-30.89-12.81-40.5.56-5.35,8.32-8.09,12.68-8.76,8.91-1.37,15.73,4.04,18.25,12.65l-8.62,2.47c-4.31,1.24-2.42-5.83-7.25-7.26-1.42-.42-5.15,1.15-5.02,2.73.73,8.97,3.12,16.88,5.17,25.54.55,2.31,2.01,4.83,4.05,5.22,2.46.47,4.94-2.1,5.25-4.84.17-1.47-.02-4.75-1.18-5.28s-3.43-.47-6.85-.67Z"/><path d="M194.35,331.19c1.4,6.76-1.49,11.47-7.5,14.44s-13.67,2.76-19.03-2.28c-2.75-2.58-3.8-7.37-4.46-11.21l-3.45-20.03c-1.1-6.38,1.32-11.08,7.69-13.12,4.38-1.4,12.15-4.29,16.38-.31,5.23,4.93,5.7,13.42,8.18,20.58l-5.43,1.52c-.09.22.23,2.7,1.01,2.79l5.16.59,1.45,7.03ZM175.59,339.63c2,.52,5.54-.17,6.75-1.33,3.94-3.77-.03-35.95-8.77-32.49-9.58,3.8-.3,25.65,2.02,33.82Z"/><path d="M259.07,276.05l-10.19-44.58-9.71,1.4-.34-7.94c11.68-2.06,17.72-3.56,31.27-4.85l1.68,7.18-11.31,2.1,9.53,44.11c-3.98,1.19-6.62,1.77-10.93,2.58Z"/><path d="M122.51,286.14c-.77,13.18-8.81,15.07-20.71,17.17l-7.53-42.61c8.05-2.22,15.89-6.8,22.02,1.46,5.3,7.14,6.72,15.19,6.21,23.98ZM114.99,290.47c.33-8.36.63-16.29-4.87-23.22-1.25-1.57-6.3-.85-7.83.68l4.61,25.42,8.09-2.87Z"/><path d="M82.5,366.34l-11.61,2.22-8.18-40.68-9.01.74v-7.55c5.67-1.09,11.43-2.47,16.75-2.05,4.68.37,7.88,2.18,10.81-2.99,1.33,2.54,1.98,5.78,1.27,7.71l-8.1,2.15,1.84,9.99c.1.56-.83,2.29-1.05,2.81-.28.66,2.13,1.85,2.3,2.68l4.97,24.97Z"/><path d="M133.07,297.18c-1.17-6.4-2-12.89-2.43-19.39-.57-1.52-1.97-4.47-2.91-5.94l-13.55-21.29c3.6-1.39,7.27-2.02,10.9-2.04l7.36,14.63,3.32-16.75,10.25-1.41-5.36,23.35c-2.96,12.92,2.75,14.32-.52,21.78.59.7,2.48,3.6,2.27,4.86-2.53,1.19-5.7,1.68-9.34,2.22Z"/></g></svg>